<?xml version="1.0" encoding="utf-8"?>
<svg viewBox="0 0 375 374.999991" xmlns="http://www.w3.org/2000/svg">
  <defs>
    <clipPath id="d360b71289">
      <path d="M 76.273438 35.453125 L 127.941406 35.453125 L 127.941406 62.777344 L 76.273438 62.777344 Z M 76.273438 35.453125 " clip-rule="nonzero"/>
    </clipPath>
    <clipPath id="06bd460a5b">
      <path d="M 125.476562 36.75 C 128.25 44.851562 128.101562 45.75 127.726562 46.949219 C 127.199219 48.449219 126.449219 50.023438 125.023438 51.601562 C 122.851562 54.074219 118.351562 57.300781 114.601562 59.175781 C 111 60.898438 106.574219 61.949219 103.199219 62.476562 C 100.648438 62.851562 98.773438 62.773438 96.226562 62.550781 C 93 62.324219 88.125 61.5 85.273438 60.675781 C 83.476562 60.148438 82.199219 59.101562 80.851562 58.875 C 79.726562 58.726562 78.375 59.699219 77.625 59.25 C 76.875 58.800781 76.199219 57.074219 76.425781 56.25 C 76.648438 55.425781 78.148438 54.375 78.976562 54.300781 C 79.726562 54.226562 80.773438 54.824219 81.148438 55.425781 C 81.601562 56.023438 81.824219 57.300781 81.449219 57.898438 C 81.074219 58.726562 79.574219 59.625 78.75 59.625 C 78 59.625 76.949219 58.949219 76.648438 58.273438 C 76.273438 57.449219 76.425781 55.726562 77.175781 55.050781 C 78 54.226562 80.101562 54.300781 82.125 54.375 C 85.351562 54.523438 90.601562 57 94.648438 57.375 C 98.25 57.75 101.851562 57.523438 105 56.925781 C 107.851562 56.476562 110.25 55.726562 112.875 54.523438 C 115.875 53.101562 120.226562 50.773438 121.800781 48.449219 C 122.925781 46.875 123.226562 45.148438 123.226562 43.351562 C 123.148438 41.398438 120.75 38.550781 121.125 37.199219 C 121.425781 36.300781 122.398438 35.550781 123.148438 35.476562 C 123.898438 35.398438 125.476562 36.75 125.476562 36.75 " clip-rule="nonzero"/>
    </clipPath>
    <clipPath id="029565e85f">
      <path d="M 94.835938 35.363281 L 114.984375 35.363281 L 114.984375 46.453125 L 94.835938 46.453125 Z M 94.835938 35.363281 " clip-rule="nonzero"/>
    </clipPath>
    <clipPath id="7ef5e49d86">
      <path d="M 97.726562 41.023438 C 104.851562 41.398438 106.199219 40.351562 107.550781 39.375 C 109.125 38.324219 110.773438 35.773438 112.050781 35.476562 C 112.875 35.25 113.699219 35.699219 114.226562 36.074219 C 114.601562 36.375 114.898438 36.824219 114.898438 37.351562 C 114.898438 38.101562 114.226562 39.523438 113.625 39.898438 C 113.023438 40.273438 111.976562 40.125 111.375 39.824219 C 110.851562 39.449219 110.25 38.550781 110.25 37.875 C 110.175781 37.273438 110.625 36.300781 111.148438 35.925781 C 111.675781 35.476562 112.726562 35.324219 113.324219 35.550781 C 113.925781 35.699219 114.675781 36.523438 114.898438 37.125 C 115.050781 37.726562 114.824219 38.550781 114.375 39.300781 C 113.699219 40.5 111.898438 42 110.25 43.125 C 108.449219 44.398438 105.824219 45.75 103.726562 46.199219 C 101.851562 46.574219 99.824219 46.351562 98.324219 46.050781 C 97.199219 45.75 95.925781 45.449219 95.324219 44.773438 C 94.875 44.101562 94.726562 42.824219 94.949219 42.148438 C 95.101562 41.699219 95.625 41.25 96.074219 41.023438 C 96.523438 40.875 97.726562 41.023438 97.726562 41.023438 " clip-rule="nonzero"/>
    </clipPath>
    <clipPath id="4c90b4cc70">
      <path d="M 80.5 6.730469 L 116.152344 6.730469 L 116.152344 24.066406 L 80.5 24.066406 Z M 80.5 6.730469 " clip-rule="nonzero"/>
    </clipPath>
    <clipPath id="ee73074b12">
      <path d="M 116.101562 9 C 115.125 17.925781 114.148438 19.574219 112.800781 20.773438 C 111.300781 21.976562 108.976562 22.648438 107.175781 23.175781 C 105.523438 23.699219 104.101562 23.851562 102.300781 23.925781 C 99.976562 24.074219 96.898438 24.148438 94.273438 23.550781 C 91.5 22.800781 88.425781 21.523438 86.101562 19.648438 C 83.851562 17.773438 80.699219 14.175781 80.550781 12.300781 C 80.476562 11.25 81.300781 10.050781 81.976562 9.675781 C 82.425781 9.300781 83.175781 9.300781 83.699219 9.375 C 84.226562 9.523438 84.824219 9.824219 85.199219 10.273438 C 85.574219 10.800781 85.949219 11.925781 85.726562 12.675781 C 85.574219 13.351562 84.75 14.25 84.074219 14.476562 C 83.398438 14.699219 82.199219 14.550781 81.601562 14.101562 C 81 13.648438 80.550781 12.601562 80.550781 11.851562 C 80.625 11.101562 81.226562 10.125 81.824219 9.75 C 82.425781 9.375 83.625 9.300781 84.300781 9.601562 C 84.898438 9.898438 85.648438 10.875 85.800781 11.550781 C 85.949219 12.074219 85.800781 12.675781 85.5 13.199219 C 85.273438 13.648438 84.824219 14.175781 84.300781 14.324219 C 83.699219 14.625 82.574219 14.550781 81.976562 14.324219 C 81.449219 14.023438 80.925781 13.425781 80.699219 12.898438 C 80.550781 12.375 80.550781 11.550781 80.699219 11.023438 C 80.925781 10.5 81.449219 9.898438 81.976562 9.675781 C 82.5 9.375 83.175781 9.148438 83.851562 9.449219 C 85.199219 9.976562 86.699219 13.949219 88.5 15.375 C 90 16.648438 91.574219 17.324219 93.449219 17.925781 C 95.625 18.601562 98.476562 18.976562 100.648438 19.050781 C 102.523438 19.050781 104.175781 19.050781 105.898438 18.523438 C 107.625 18 109.949219 17.476562 110.925781 15.976562 C 112.050781 14.25 111 9.898438 111.523438 8.398438 C 111.75 7.726562 111.976562 7.351562 112.5 7.050781 C 113.101562 6.75 114.523438 6.675781 115.125 7.050781 C 115.648438 7.425781 116.101562 9 116.101562 9 " clip-rule="nonzero"/>
    </clipPath>
    <clipPath id="be582d460a">
      <path d="M 78.886719 42.84375 L 88.558594 42.84375 L 88.558594 53.292969 L 78.886719 53.292969 Z M 78.886719 42.84375 " clip-rule="nonzero"/>
    </clipPath>
    <clipPath id="7beeb42dff">
      <path d="M 84.898438 47.476562 C 82.949219 49.574219 83.925781 50.851562 83.699219 51.601562 C 83.476562 52.273438 82.800781 53.101562 82.125 53.25 C 81.375 53.398438 79.800781 52.949219 79.425781 52.273438 C 78.976562 51.675781 79.125 50.023438 79.574219 49.425781 C 79.949219 48.824219 81 48.449219 81.675781 48.601562 C 82.425781 48.75 83.550781 49.875 83.773438 50.625 C 83.925781 51.226562 83.550781 52.273438 83.023438 52.726562 C 82.425781 53.175781 80.773438 53.324219 80.101562 53.023438 C 79.648438 52.800781 79.351562 52.425781 79.125 51.824219 C 78.824219 50.851562 78.898438 48.449219 79.273438 47.25 C 79.574219 46.351562 80.25 45.824219 80.773438 45.226562 C 81.375 44.625 81.898438 43.949219 82.574219 43.574219 C 83.324219 43.125 84.449219 42.824219 85.273438 42.898438 C 86.023438 42.898438 86.925781 43.199219 87.449219 43.648438 C 87.976562 44.101562 88.5 44.925781 88.5 45.523438 C 88.574219 46.050781 88.273438 46.726562 87.976562 47.101562 C 87.601562 47.476562 87 47.773438 86.476562 47.851562 C 86.023438 47.925781 84.898438 47.476562 84.898438 47.476562 " clip-rule="nonzero"/>
    </clipPath>
    <clipPath id="aacc767ff5">
      <path d="M 107.582031 22.261719 L 112.855469 22.261719 L 112.855469 36.394531 L 107.582031 36.394531 Z M 107.582031 22.261719 " clip-rule="nonzero"/>
    </clipPath>
    <clipPath id="6d8d8a1497">
      <path d="M 112.425781 24.601562 C 112.351562 35.851562 111.601562 36.226562 111.074219 36.300781 C 110.625 36.449219 110.101562 36.375 109.726562 36.074219 C 109.199219 35.625 108.601562 34.351562 108.675781 33.675781 C 108.75 33.074219 109.425781 32.324219 110.023438 32.175781 C 110.699219 31.949219 112.125 32.324219 112.574219 32.925781 C 112.949219 33.449219 112.875 34.949219 112.5 35.550781 C 112.125 36 111.226562 36.449219 110.625 36.300781 C 109.949219 36.226562 109.125 35.550781 108.675781 34.574219 C 107.773438 32.699219 107.25 26.625 107.925781 24.601562 C 108.375 23.476562 109.273438 22.574219 109.949219 22.351562 C 110.398438 22.199219 111.074219 22.425781 111.449219 22.726562 C 111.898438 23.101562 112.425781 24.601562 112.425781 24.601562 " clip-rule="nonzero"/>
    </clipPath>
    <clipPath id="e278b19e28">
      <path d="M 89.914062 34.367188 L 95.617188 34.367188 L 95.617188 42.464844 L 89.914062 42.464844 Z M 89.914062 34.367188 " clip-rule="nonzero"/>
    </clipPath>
    <clipPath id="3094e35692">
      <path d="M 94.351562 35.851562 C 95.625 40.800781 95.550781 41.25 95.175781 41.550781 C 94.726562 42 93.226562 42.523438 92.550781 42.300781 C 91.949219 42.074219 91.273438 41.25 91.199219 40.648438 C 91.050781 40.050781 91.273438 39.074219 91.726562 38.625 C 92.175781 38.175781 93.148438 37.800781 93.75 37.949219 C 94.351562 38.023438 95.175781 38.625 95.476562 39.226562 C 95.699219 39.824219 95.625 40.800781 95.324219 41.324219 C 95.023438 41.851562 94.125 42.449219 93.523438 42.449219 C 92.773438 42.449219 91.800781 41.699219 91.199219 40.875 C 90.523438 39.898438 89.925781 37.800781 89.925781 36.75 C 89.925781 36.148438 90 35.625 90.375 35.175781 C 90.824219 34.726562 92.175781 34.199219 92.851562 34.425781 C 93.449219 34.5 94.351562 35.851562 94.351562 35.851562 " clip-rule="nonzero"/>
    </clipPath>
    <clipPath id="03afbc3725">
      <path d="M 85.699219 2.972656 L 110.253906 2.972656 L 110.253906 18.777344 L 85.699219 18.777344 Z M 85.699219 2.972656 " clip-rule="nonzero"/>
    </clipPath>
    <clipPath id="04053f8fe5">
      <path d="M 92.476562 7.125 C 87.75 10.574219 86.925781 10.199219 86.398438 9.824219 C 86.023438 9.449219 85.726562 8.851562 85.726562 8.324219 C 85.726562 7.726562 86.023438 6.976562 86.550781 6.375 C 87.226562 5.476562 88.800781 4.273438 90 3.898438 C 91.125 3.523438 92.699219 3.300781 93.375 3.824219 C 94.125 4.425781 94.273438 6.601562 94.125 7.800781 C 93.898438 8.925781 93.074219 10.425781 92.25 10.800781 C 91.574219 11.25 90.148438 11.101562 89.550781 10.648438 C 88.949219 10.199219 88.425781 8.925781 88.800781 8.023438 C 89.324219 6.601562 94.273438 3.226562 95.550781 3.75 C 96.601562 4.125 96.976562 7.199219 96.75 8.851562 C 96.523438 10.726562 95.101562 13.800781 93.898438 14.398438 C 93.148438 14.773438 91.726562 14.398438 91.273438 13.800781 C 90.75 13.273438 90.523438 12.148438 90.824219 11.175781 C 91.351562 9.148438 95.324219 4.351562 97.199219 3.449219 C 98.175781 2.925781 99.300781 3 99.898438 3.375 C 100.5 3.675781 100.875 4.425781 100.949219 5.324219 C 101.25 7.273438 99.976562 13.125 98.925781 14.699219 C 98.398438 15.523438 97.800781 15.976562 97.125 15.976562 C 96.449219 16.050781 95.175781 15.375 94.800781 14.773438 C 94.425781 14.324219 94.425781 13.800781 94.574219 13.125 C 94.800781 11.851562 96.375 9.074219 97.648438 7.875 C 98.699219 6.976562 100.199219 6 101.175781 6.074219 C 101.925781 6.148438 102.601562 6.824219 102.898438 7.574219 C 103.351562 8.625 102.976562 10.574219 102.675781 12.148438 C 102.300781 13.949219 101.925781 16.949219 100.875 17.773438 C 100.199219 18.300781 98.925781 18.300781 98.324219 17.925781 C 97.726562 17.550781 97.199219 16.574219 97.199219 15.601562 C 97.273438 13.648438 99.824219 8.476562 101.25 7.125 C 102 6.449219 102.75 6 103.425781 6.148438 C 104.398438 6.375 105.898438 8.023438 106.351562 9.375 C 106.875 11.175781 106.125 14.925781 105.300781 16.273438 C 104.773438 17.175781 103.949219 17.851562 103.199219 17.925781 C 102.449219 17.925781 101.324219 17.023438 100.949219 16.425781 C 100.726562 15.976562 100.726562 15.449219 100.875 14.773438 C 101.101562 13.875 101.925781 12.523438 102.675781 11.550781 C 103.273438 10.726562 104.101562 9.523438 104.925781 9.300781 C 105.824219 9.148438 107.25 9.75 107.851562 10.425781 C 108.449219 10.949219 108.675781 11.773438 108.75 12.75 C 108.824219 14.175781 108.601562 17.175781 107.699219 18.074219 C 107.101562 18.675781 105.675781 18.824219 105 18.523438 C 104.324219 18.226562 103.726562 17.175781 103.648438 16.199219 C 103.425781 14.550781 104.773438 10.726562 105.75 9.523438 C 106.273438 8.851562 107.023438 8.476562 107.699219 8.398438 C 108.148438 8.324219 108.75 8.476562 109.125 8.773438 C 109.648438 9.148438 110.175781 10.125 110.175781 10.800781 C 110.175781 11.476562 109.648438 12.375 109.125 12.75 C 108.601562 13.125 107.476562 13.273438 106.875 12.976562 C 106.199219 12.675781 105.300781 11.25 105.375 10.5 C 105.523438 9.75 106.648438 8.550781 107.398438 8.398438 C 108.148438 8.25 109.574219 8.925781 109.949219 9.75 C 110.625 11.324219 108.898438 16.875 107.699219 18.074219 C 107.101562 18.675781 106.199219 18.824219 105.523438 18.675781 C 104.925781 18.601562 104.101562 18 103.800781 17.324219 C 103.351562 16.199219 103.648438 12.601562 104.324219 12.226562 C 104.851562 12 106.648438 13.050781 106.800781 13.726562 C 107.023438 14.476562 105.75 16.125 105.074219 16.800781 C 104.550781 17.398438 103.800781 17.851562 103.199219 17.925781 C 102.523438 17.925781 101.625 17.398438 101.25 16.949219 C 100.875 16.5 100.800781 16.050781 100.800781 15.375 C 100.800781 14.023438 101.25 10.050781 102.300781 9.449219 C 102.898438 9 104.550781 9.226562 104.925781 9.824219 C 105.449219 10.875 102.523438 16.125 101.25 17.398438 C 100.648438 18 99.976562 18.226562 99.375 18.226562 C 98.851562 18.226562 98.25 17.925781 97.875 17.625 C 97.5 17.25 97.273438 16.800781 97.199219 16.125 C 97.050781 15 97.800781 12.675781 98.175781 11.398438 C 98.476562 10.425781 98.550781 9.074219 99.074219 8.925781 C 99.675781 8.699219 101.324219 9.75 101.476562 10.574219 C 101.625 11.773438 98.925781 15.300781 97.648438 15.824219 C 96.976562 16.199219 96.074219 15.976562 95.550781 15.601562 C 94.949219 15.300781 94.5 13.726562 94.5 13.726562 C 94.5 13.726562 95.023438 15 95.25 15 C 95.476562 14.925781 94.949219 11.851562 95.175781 10.199219 C 95.398438 8.175781 95.851562 4.875 96.75 3.824219 C 97.273438 3.148438 98.175781 2.925781 98.851562 3 C 99.449219 3.074219 100.425781 3.601562 100.648438 4.199219 C 101.023438 4.875 100.875 5.851562 100.425781 6.898438 C 99.523438 8.925781 95.625 13.648438 93.898438 14.398438 C 93.074219 14.699219 92.25 14.550781 91.648438 14.175781 C 91.125 13.875 90.675781 13.125 90.601562 12.226562 C 90.523438 10.875 92.023438 6.601562 93 6.375 C 93.75 6.226562 95.476562 7.726562 95.398438 8.476562 C 95.398438 9.300781 92.773438 10.800781 91.726562 11.101562 C 91.125 11.25 90.523438 11.175781 90.074219 10.949219 C 89.550781 10.726562 89.023438 10.273438 88.875 9.75 C 88.648438 8.925781 89.398438 6.300781 89.851562 6.226562 C 90.226562 6.148438 91.351562 7.726562 91.273438 8.324219 C 91.125 9.074219 89.773438 9.898438 89.023438 10.199219 C 88.351562 10.425781 87.449219 10.425781 86.851562 10.125 C 86.324219 9.824219 85.726562 9 85.726562 8.324219 C 85.726562 7.5 86.699219 6.226562 87.449219 5.324219 C 88.273438 4.425781 89.550781 3.226562 90.523438 3.148438 C 91.351562 3 92.476562 3.601562 92.925781 4.125 C 93.300781 4.5 93.300781 5.25 93.226562 5.699219 C 93.148438 6.226562 92.476562 7.125 92.476562 7.125 " clip-rule="nonzero"/>
    </clipPath>
    <clipPath id="854b6b2242">
      <path d="M 93.507812 21.675781 L 111.394531 21.675781 L 111.394531 40.402344 L 93.507812 40.402344 Z M 93.507812 21.675781 " clip-rule="nonzero"/>
    </clipPath>
    <clipPath id="8cf09d0d0a">
      <path d="M 99.75 24.675781 C 96.523438 31.5 95.625 31.5 95.023438 31.199219 C 94.351562 30.898438 93.523438 29.925781 93.523438 29.023438 C 93.523438 27.449219 96.601562 23.550781 97.800781 22.648438 C 98.398438 22.199219 98.925781 22.125 99.449219 22.199219 C 99.976562 22.273438 100.574219 22.574219 100.949219 22.949219 C 101.324219 23.398438 101.476562 24.148438 101.476562 25.050781 C 101.476562 26.625 100.5 30.300781 99.675781 31.726562 C 99.226562 32.476562 98.773438 33.148438 98.175781 33.300781 C 97.5 33.449219 96.074219 33.074219 95.625 32.476562 C 95.175781 32.023438 95.023438 31.199219 95.175781 30.375 C 95.476562 29.023438 97.273438 26.699219 98.476562 25.574219 C 99.375 24.75 100.574219 24 101.476562 24 C 102.226562 23.925781 103.050781 24.300781 103.574219 24.75 C 104.175781 25.273438 104.550781 25.949219 104.625 27 C 104.773438 29.101562 102.824219 35.175781 101.699219 36.898438 C 101.25 37.648438 100.726562 38.101562 100.125 38.25 C 99.523438 38.398438 98.550781 38.175781 98.101562 37.726562 C 97.574219 37.199219 97.273438 36.300781 97.5 35.175781 C 97.875 33 102.226562 27.148438 103.648438 25.726562 C 104.25 25.125 104.550781 24.898438 105 24.824219 C 105.523438 24.75 106.199219 24.75 106.648438 25.050781 C 107.101562 25.425781 107.625 25.949219 107.773438 26.851562 C 108.074219 29.023438 105.898438 36.675781 104.625 38.699219 C 104.101562 39.675781 103.5 40.273438 102.824219 40.351562 C 102.148438 40.425781 101.023438 39.824219 100.648438 39.300781 C 100.351562 38.851562 100.351562 38.476562 100.425781 37.800781 C 100.726562 36.148438 103.425781 31.5 104.625 29.925781 C 105.226562 29.175781 105.75 28.648438 106.351562 28.425781 C 106.800781 28.199219 107.398438 28.125 107.851562 28.351562 C 108.375 28.5 109.050781 29.023438 109.273438 29.699219 C 109.726562 30.898438 109.125 33.523438 108.675781 35.175781 C 108.300781 36.675781 107.773438 38.550781 107.101562 39.226562 C 106.726562 39.675781 106.199219 39.824219 105.675781 39.824219 C 105.148438 39.824219 104.25 39.449219 103.875 39 C 103.574219 38.476562 103.425781 37.875 103.574219 36.976562 C 103.875 35.023438 106.648438 28.949219 107.925781 27.75 C 108.449219 27.300781 108.898438 27.226562 109.351562 27.226562 C 109.949219 27.300781 110.773438 27.601562 111.148438 28.199219 C 111.675781 29.175781 111.226562 32.023438 110.925781 33.375 C 110.699219 34.351562 110.476562 35.101562 109.875 35.851562 C 109.050781 36.898438 107.101562 38.550781 105.898438 38.699219 C 105 38.851562 103.875 38.25 103.5 37.648438 C 103.125 37.125 103.125 36.148438 103.425781 35.550781 C 103.648438 35.023438 104.476562 34.425781 105.074219 34.351562 C 105.675781 34.273438 106.648438 34.574219 107.023438 35.101562 C 107.476562 35.625 107.625 37.199219 107.25 37.800781 C 106.875 38.324219 105.449219 38.925781 104.773438 38.699219 C 104.023438 38.476562 103.273438 37.199219 103.199219 36.523438 C 103.125 36 103.351562 35.550781 103.648438 35.175781 C 104.101562 34.648438 105.300781 34.800781 105.898438 34.050781 C 106.875 32.851562 106.800781 28.574219 107.925781 27.75 C 108.675781 27.226562 110.25 27.375 110.773438 27.824219 C 111.300781 28.273438 111.449219 29.175781 111.375 30.226562 C 111.074219 32.324219 108.375 38.023438 107.101562 39.226562 C 106.574219 39.75 106.199219 39.824219 105.675781 39.824219 C 105.148438 39.824219 104.25 39.375 103.875 39 C 103.574219 38.625 103.5 38.175781 103.5 37.5 C 103.425781 35.925781 104.550781 30.898438 105.300781 29.476562 C 105.601562 28.875 105.898438 28.574219 106.351562 28.425781 C 106.949219 28.199219 108.300781 28.351562 108.75 28.875 C 109.199219 29.324219 109.351562 30.226562 109.199219 31.273438 C 108.824219 33.226562 105.601562 38.398438 104.175781 39.601562 C 103.5 40.199219 102.898438 40.425781 102.300781 40.351562 C 101.699219 40.351562 100.949219 40.050781 100.648438 39.300781 C 99.898438 37.351562 102.449219 27.449219 103.648438 25.726562 C 104.101562 25.050781 104.476562 24.898438 105 24.824219 C 105.675781 24.75 107.023438 25.273438 107.398438 25.800781 C 107.773438 26.324219 107.773438 27 107.550781 27.898438 C 107.023438 30.074219 102.675781 36.523438 101.101562 37.726562 C 100.5 38.25 100.050781 38.324219 99.601562 38.324219 C 99.074219 38.324219 98.476562 38.101562 98.101562 37.726562 C 97.648438 37.273438 97.351562 36.523438 97.351562 35.773438 C 97.351562 34.425781 98.550781 32.175781 99.074219 30.75 C 99.523438 29.550781 100.050781 27.601562 100.425781 27.601562 C 100.800781 27.675781 101.476562 29.023438 101.324219 29.773438 C 101.25 30.75 99.976562 32.101562 99.148438 32.699219 C 98.476562 33.148438 97.648438 33.449219 97.050781 33.375 C 96.375 33.226562 95.625 32.699219 95.324219 32.023438 C 94.949219 31.199219 95.25 29.925781 95.476562 28.726562 C 95.773438 27.074219 96.449219 24 97.425781 23.023438 C 97.949219 22.425781 98.773438 22.125 99.449219 22.199219 C 100.050781 22.273438 100.949219 22.875 101.25 23.398438 C 101.550781 24 101.550781 24.75 101.324219 25.574219 C 100.800781 27.074219 98.550781 30.300781 97.125 30.976562 C 96.300781 31.425781 95.101562 31.351562 94.5 30.976562 C 93.976562 30.601562 93.601562 29.851562 93.523438 29.023438 C 93.523438 27.375 95.175781 22.800781 96.449219 21.976562 C 97.199219 21.523438 98.476562 21.75 99.074219 22.199219 C 99.601562 22.648438 99.75 24.675781 99.75 24.675781 " clip-rule="nonzero"/>
    </clipPath>
    <clipPath id="14efcbea4d">
      <path d="M 86.226562 38.675781 L 125.863281 38.675781 L 125.863281 55.375 L 86.226562 55.375 Z M 86.226562 38.675781 " clip-rule="nonzero"/>
    </clipPath>
    <clipPath id="0ffca556f6">
      <path d="M 94.125 45.449219 C 88.648438 53.25 87.523438 53.023438 87 52.648438 C 86.476562 52.199219 86.175781 51.074219 86.324219 50.25 C 86.550781 49.199219 88.050781 47.699219 89.324219 46.875 C 90.523438 46.050781 92.851562 44.925781 93.601562 45.449219 C 94.351562 45.976562 93.976562 48.75 93.75 50.25 C 93.523438 51.675781 93.074219 53.398438 92.398438 54.226562 C 91.949219 54.824219 91.199219 55.199219 90.601562 55.273438 C 90.074219 55.351562 89.476562 55.125 89.101562 54.824219 C 88.648438 54.375 88.199219 53.625 88.273438 52.875 C 88.351562 51.898438 89.625 50.398438 90.75 49.648438 C 91.949219 48.898438 94.574219 48.300781 95.550781 48.675781 C 96.226562 48.976562 96.601562 49.949219 96.75 50.699219 C 96.898438 51.375 96.824219 52.800781 96.449219 52.949219 C 96.074219 53.101562 94.425781 51.824219 94.351562 51.226562 C 94.273438 50.550781 95.476562 49.5 96.226562 48.898438 C 96.976562 48.300781 98.175781 47.324219 99 47.476562 C 99.976562 47.699219 101.773438 50.101562 101.550781 50.398438 C 101.398438 50.699219 98.773438 50.25 98.625 49.726562 C 98.398438 49.050781 101.25 46.199219 102.375 46.050781 C 103.199219 45.976562 104.398438 46.726562 104.699219 47.398438 C 105 48.074219 104.25 50.101562 104.25 50.101562 C 104.324219 50.101562 104.699219 47.699219 104.851562 47.773438 C 105.074219 47.773438 105.449219 49.875 105.300781 50.925781 C 105.226562 51.976562 105 53.324219 104.324219 53.851562 C 103.726562 54.300781 102.226562 54.300781 101.550781 54 C 101.023438 53.773438 100.648438 53.175781 100.5 52.648438 C 100.351562 52.125 100.351562 51.601562 100.648438 50.925781 C 101.324219 49.425781 104.699219 45.226562 106.351562 44.773438 C 107.25 44.550781 108.449219 45.148438 108.898438 45.75 C 109.351562 46.351562 109.273438 48.300781 108.976562 48.523438 C 108.601562 48.675781 107.023438 47.773438 107.023438 47.175781 C 106.949219 46.199219 110.101562 43.199219 111.375 42.898438 C 112.125 42.75 113.023438 43.273438 113.476562 43.648438 C 113.851562 44.101562 114.074219 44.550781 114.074219 45.300781 C 114.226562 46.648438 113.476562 50.550781 112.425781 51.375 C 111.75 51.976562 110.324219 51.898438 109.648438 51.523438 C 108.976562 51.148438 108.449219 50.023438 108.523438 48.976562 C 108.675781 47.023438 112.125 42.375 113.398438 41.023438 C 114 40.5 114.375 40.273438 114.898438 40.125 C 115.425781 40.050781 116.101562 40.125 116.625 40.425781 C 117.148438 40.800781 117.601562 41.550781 117.75 42.375 C 118.050781 43.800781 117.601562 47.101562 117.148438 48.375 C 116.925781 49.050781 116.699219 49.5 116.25 49.800781 C 115.648438 50.101562 114.148438 50.25 113.550781 49.875 C 112.875 49.425781 112.425781 48.375 112.5 47.324219 C 112.5 45.523438 114.824219 41.550781 116.023438 40.125 C 116.625 39.375 117.300781 38.925781 117.898438 38.773438 C 118.425781 38.699219 119.101562 38.851562 119.550781 39.148438 C 120 39.449219 120.300781 39.824219 120.601562 40.5 C 121.050781 41.925781 121.5 46.050781 120.898438 47.550781 C 120.523438 48.449219 119.625 49.273438 118.949219 49.425781 C 118.273438 49.5 117.300781 49.125 116.851562 48.675781 C 116.476562 48.300781 116.175781 47.851562 116.25 47.175781 C 116.25 45.75 118.351562 42.226562 119.398438 40.800781 C 120.074219 39.976562 120.75 39.300781 121.5 39.074219 C 122.023438 38.851562 122.699219 38.925781 123.148438 39.148438 C 123.675781 39.300781 124.050781 39.675781 124.351562 40.273438 C 124.949219 41.476562 125.625 45.226562 124.949219 46.425781 C 124.574219 47.25 123.375 47.851562 122.625 47.851562 C 121.949219 47.773438 121.050781 47.324219 120.675781 46.648438 C 120.226562 45.523438 120.898438 41.699219 121.800781 40.726562 C 122.324219 40.199219 123.375 40.050781 123.976562 40.199219 C 124.648438 40.351562 125.476562 41.101562 125.699219 41.773438 C 125.925781 42.375 125.773438 43.5 125.324219 44.023438 C 124.875 44.550781 123.300781 45.074219 122.550781 44.851562 C 121.875 44.625 121.125 43.800781 121.050781 43.125 C 120.898438 42.375 121.574219 40.875 122.175781 40.425781 C 122.773438 40.050781 123.898438 40.050781 124.5 40.425781 C 125.101562 40.800781 125.699219 42.074219 125.773438 43.050781 C 125.851562 44.25 125.023438 46.648438 124.273438 47.324219 C 123.824219 47.773438 123.148438 47.851562 122.625 47.851562 C 122.101562 47.773438 121.425781 47.625 121.050781 47.101562 C 120.226562 45.976562 119.699219 41.324219 120.148438 40.125 C 120.449219 39.523438 120.898438 39.148438 121.5 39.074219 C 122.175781 38.925781 123.601562 39.226562 124.050781 39.824219 C 124.5 40.351562 124.574219 41.476562 124.273438 42.523438 C 123.824219 44.25 121.199219 48.074219 120 48.976562 C 119.398438 49.351562 118.875 49.425781 118.351562 49.425781 C 117.824219 49.351562 117.226562 49.050781 116.851562 48.675781 C 116.476562 48.300781 116.324219 47.851562 116.25 47.175781 C 115.949219 45.601562 115.726562 40.875 116.476562 39.601562 C 116.773438 39.074219 117.375 38.851562 117.898438 38.773438 C 118.5 38.773438 119.550781 39 120 39.523438 C 120.449219 39.976562 120.675781 40.726562 120.601562 41.625 C 120.375 43.5 117.824219 48.75 116.25 49.800781 C 115.351562 50.324219 114.148438 50.25 113.550781 49.875 C 112.949219 49.5 112.574219 48.824219 112.425781 47.925781 C 112.125 46.351562 112.648438 42.226562 113.398438 41.023438 C 113.851562 40.5 114.375 40.199219 114.898438 40.125 C 115.5 40.050781 116.550781 40.351562 117.074219 40.800781 C 117.523438 41.25 117.824219 42.074219 117.75 42.976562 C 117.449219 44.851562 114.074219 50.324219 112.425781 51.375 C 111.675781 51.898438 110.851562 52.050781 110.175781 51.75 C 109.5 51.523438 108.675781 50.550781 108.523438 49.574219 C 108.148438 48.148438 109.050781 44.773438 109.800781 43.726562 C 110.25 43.199219 110.773438 42.976562 111.375 42.898438 C 111.976562 42.898438 113.023438 43.199219 113.476562 43.648438 C 113.925781 44.175781 114.226562 45 114.074219 45.824219 C 113.699219 47.476562 110.550781 51.675781 108.75 52.199219 C 107.476562 52.574219 105.601562 51.824219 104.925781 50.925781 C 104.175781 49.875 104.398438 46.800781 104.925781 45.824219 C 105.226562 45.226562 105.75 44.925781 106.351562 44.773438 C 106.949219 44.699219 108 44.851562 108.523438 45.300781 C 109.050781 45.75 109.5 46.574219 109.351562 47.398438 C 109.125 49.050781 105.824219 52.949219 104.324219 53.851562 C 103.5 54.300781 102.75 54.449219 102.074219 54.226562 C 101.476562 54.074219 100.800781 53.476562 100.5 52.648438 C 100.050781 51.375 100.199219 47.773438 100.875 46.800781 C 101.175781 46.273438 101.851562 46.050781 102.375 46.050781 C 102.976562 46.050781 104.023438 46.425781 104.398438 46.949219 C 104.851562 47.398438 105.074219 48.300781 104.851562 49.125 C 104.476562 50.324219 102.148438 52.949219 100.800781 53.101562 C 99.675781 53.25 97.574219 50.925781 97.5 50.925781 C 97.5 51 99.300781 51.824219 99.300781 52.351562 C 99.300781 53.023438 97.574219 54.226562 96.601562 54.675781 C 95.925781 55.050781 95.101562 55.351562 94.351562 55.199219 C 93.601562 55.050781 92.550781 54.449219 92.25 53.773438 C 91.949219 53.175781 92.023438 51.75 92.398438 51.449219 C 92.851562 51.148438 94.648438 51.75 94.726562 52.199219 C 94.800781 52.875 91.648438 55.125 90.601562 55.273438 C 90 55.425781 89.476562 55.125 89.101562 54.824219 C 88.648438 54.375 88.273438 53.699219 88.273438 52.875 C 88.273438 51.523438 89.851562 47.550781 90.75 47.398438 C 91.351562 47.324219 92.625 48.824219 92.550781 49.648438 C 92.550781 50.625 90.523438 52.425781 89.476562 52.800781 C 88.648438 53.101562 87.523438 53.023438 87 52.648438 C 86.476562 52.199219 86.25 51.226562 86.324219 50.25 C 86.550781 48.449219 89.324219 43.273438 90.976562 42.523438 C 91.875 42.074219 93.375 42.375 93.898438 42.898438 C 94.351562 43.425781 94.125 45.449219 94.125 45.449219 " clip-rule="nonzero"/>
    </clipPath>
    <clipPath id="4074c91590">
      <path d="M 101.035156 41.492188 L 123.398438 41.492188 L 123.398438 57 L 101.035156 57 Z M 101.035156 41.492188 " clip-rule="nonzero"/>
    </clipPath>
    <clipPath id="75f38ec4c2">
      <path d="M 119.851562 45.074219 C 114.675781 50.625 112.351562 51.976562 110.699219 52.574219 C 109.351562 53.023438 107.925781 53.398438 107.023438 53.101562 C 106.425781 52.949219 106.050781 52.425781 105.75 51.898438 C 105.523438 51.449219 105.449219 50.773438 105.601562 50.25 C 105.75 49.726562 106.050781 49.125 106.648438 48.824219 C 107.550781 48.226562 109.726562 48.75 111.449219 48.226562 C 113.773438 47.550781 117 44.398438 119.175781 44.324219 C 120.675781 44.324219 122.625 45.300781 123.148438 46.273438 C 123.523438 46.949219 123.375 48.074219 122.925781 48.976562 C 122.175781 50.324219 120.074219 51.601562 117.898438 52.726562 C 114.523438 54.449219 106.574219 57.074219 103.949219 57 C 102.898438 57 102.226562 56.773438 101.773438 56.25 C 101.324219 55.648438 101.101562 54 101.476562 53.324219 C 101.773438 52.648438 102.824219 52.125 103.5 52.125 C 104.175781 52.050781 105.148438 52.574219 105.523438 53.101562 C 105.976562 53.625 106.125 54.75 105.898438 55.351562 C 105.675781 56.023438 104.925781 56.851562 104.25 56.925781 C 103.5 57.074219 101.925781 56.398438 101.476562 55.800781 C 101.101562 55.425781 101.023438 54.824219 101.175781 54.300781 C 101.25 53.699219 101.625 53.023438 102.449219 52.425781 C 104.773438 50.699219 116.023438 46.648438 118.726562 47.324219 C 119.773438 47.550781 120.75 48.601562 120.601562 49.273438 C 120.375 50.476562 114.898438 52.425781 112.5 53.023438 C 110.699219 53.476562 108.824219 53.699219 107.625 53.25 C 106.726562 52.949219 105.75 52.125 105.601562 51.375 C 105.449219 50.625 105.898438 49.5 106.648438 48.824219 C 107.550781 47.925781 109.800781 48 111.449219 47.023438 C 113.476562 45.824219 115.875 41.851562 117.449219 41.550781 C 118.425781 41.398438 119.476562 41.925781 119.925781 42.523438 C 120.300781 43.125 119.851562 45.074219 119.851562 45.074219 " clip-rule="nonzero"/>
    </clipPath>
    <clipPath id="07573a541a">
      <path d="M 95.292969 50.957031 L 111.269531 50.957031 L 111.269531 56.28125 L 95.292969 56.28125 Z M 95.292969 50.957031 " clip-rule="nonzero"/>
    </clipPath>
    <clipPath id="06394b6cc4">
      <path d="M 108.976562 55.648438 C 96.976562 56.175781 96.601562 56.101562 96.226562 55.800781 C 95.773438 55.425781 95.25 54.523438 95.324219 53.925781 C 95.398438 53.175781 96.375 51.976562 97.050781 51.75 C 97.648438 51.601562 98.699219 51.824219 99.148438 52.273438 C 99.601562 52.800781 99.898438 54.300781 99.601562 54.976562 C 99.375 55.574219 98.550781 56.175781 97.875 56.25 C 97.125 56.25 95.851562 55.5 95.476562 54.824219 C 95.175781 54.300781 95.398438 53.25 95.699219 52.726562 C 95.925781 52.273438 96.148438 52.050781 96.824219 51.824219 C 98.699219 51.148438 106.875 50.773438 108.976562 51.074219 C 109.726562 51.226562 110.101562 51.375 110.476562 51.675781 C 110.851562 51.976562 111.148438 52.574219 111.226562 53.101562 C 111.300781 53.625 111.148438 54.226562 110.851562 54.675781 C 110.476562 55.125 108.976562 55.648438 108.976562 55.648438 " clip-rule="nonzero"/>
    </clipPath>
    <clipPath id="dadb54dc7e">
      <path d="M 88.28125 48.179688 L 101.605469 48.179688 L 101.605469 54.992188 L 88.28125 54.992188 Z M 88.28125 48.179688 " clip-rule="nonzero"/>
    </clipPath>
    <clipPath id="efa8bb82dd">
      <path d="M 99.226562 54.976562 C 93.449219 54.074219 89.851562 53.101562 88.875 51.898438 C 88.273438 51.148438 88.125 49.949219 88.5 49.351562 C 88.800781 48.75 90.226562 48.148438 90.898438 48.300781 C 91.5 48.375 92.175781 49.050781 92.398438 49.574219 C 92.625 50.175781 92.476562 51.148438 92.175781 51.601562 C 91.800781 52.125 90.898438 52.5 90.375 52.5 C 89.925781 52.574219 89.398438 52.425781 89.101562 52.050781 C 88.648438 51.601562 88.125 50.175781 88.425781 49.574219 C 88.648438 48.898438 89.699219 48.300781 90.675781 48.226562 C 92.023438 48.148438 94.050781 49.875 95.773438 50.324219 C 97.425781 50.699219 99.675781 50.175781 100.574219 50.925781 C 101.25 51.449219 101.773438 52.574219 101.550781 53.25 C 101.324219 53.925781 99.226562 54.976562 99.226562 54.976562 " clip-rule="nonzero"/>
    </clipPath>
  </defs>
  <g clip-path="url(#d360b71289)" transform="matrix(1, 0, 0, 1, -70.32849890583054, 0.45519501013233565)">
    <g clip-path="url(#06bd460a5b)">
      <path fill="#000000" d="M 73.425781 32.476562 L 131.050781 32.476562 L 131.050781 65.625 L 73.425781 65.625 Z M 73.425781 32.476562 " fill-opacity="1" fill-rule="nonzero"/>
    </g>
  </g>
  <g clip-path="url(#029565e85f)" transform="matrix(1, 0, 0, 1, -70.32849890583054, 0.45519501013233565)">
    <g clip-path="url(#7ef5e49d86)">
      <path fill="#000000" d="M 91.949219 32.476562 L 118.003906 32.476562 L 118.003906 49.273438 L 91.949219 49.273438 Z M 91.949219 32.476562 " fill-opacity="1" fill-rule="nonzero"/>
    </g>
  </g>
  <g clip-path="url(#4c90b4cc70)" transform="matrix(1, 0, 0, 1, -70.32849890583054, 0.45519501013233565)">
    <g clip-path="url(#ee73074b12)">
      <path fill="#000000" d="M 77.550781 4.050781 L 119.101562 4.050781 L 119.101562 26.925781 L 77.550781 26.925781 Z M 77.550781 4.050781 " fill-opacity="1" fill-rule="nonzero"/>
    </g>
  </g>
  <g clip-path="url(#be582d460a)" transform="matrix(1, 0, 0, 1, -70.32849890583054, 0.45519501013233565)">
    <g clip-path="url(#7beeb42dff)">
      <path fill="#000000" d="M 76.125 39.898438 L 91.5 39.898438 L 91.5 56.296875 L 76.125 56.296875 Z M 76.125 39.898438 " fill-opacity="1" fill-rule="nonzero"/>
    </g>
  </g>
  <g clip-path="url(#aacc767ff5)" transform="matrix(1, 0, 0, 1, -70.32849890583054, 0.45519501013233565)">
    <g clip-path="url(#6d8d8a1497)">
      <path fill="#000000" d="M 104.925781 19.351562 L 115.726562 19.351562 L 115.726562 39.390625 L 104.925781 39.390625 Z M 104.925781 19.351562 " fill-opacity="1" fill-rule="nonzero"/>
    </g>
  </g>
  <g clip-path="url(#e278b19e28)" transform="matrix(1, 0, 0, 1, -70.32849890583054, 0.45519501013233565)">
    <g clip-path="url(#3094e35692)">
      <path fill="#000000" d="M 86.925781 31.425781 L 98.699219 31.425781 L 98.699219 45.546875 L 86.925781 45.546875 Z M 86.925781 31.425781 " fill-opacity="1" fill-rule="nonzero"/>
    </g>
  </g>
  <g clip-path="url(#03afbc3725)" transform="matrix(1, 0, 0, 1, -70.32849890583054, 0.45519501013233565)">
    <g clip-path="url(#04053f8fe5)">
      <path fill="#116bac" d="M 82.726562 0 L 113.226562 0 L 113.226562 21.75 L 82.726562 21.75 Z M 82.726562 0 " fill-opacity="1" fill-rule="nonzero"/>
    </g>
  </g>
  <g clip-path="url(#854b6b2242)" transform="matrix(1, 0, 0, 1, -70.32849890583054, 0.45519501013233565)">
    <g clip-path="url(#8cf09d0d0a)">
      <path fill="#116bac" d="M 90.523438 18.976562 L 114.375 18.976562 L 114.375 43.382812 L 90.523438 43.382812 Z M 90.523438 18.976562 " fill-opacity="1" fill-rule="nonzero"/>
    </g>
  </g>
  <g clip-path="url(#14efcbea4d)" transform="matrix(1, 0, 0, 1, -70.32849890583054, 0.45519501013233565)">
    <g clip-path="url(#0ffca556f6)">
      <path fill="#116bac" d="M 83.324219 35.773438 L 128.765625 35.773438 L 128.765625 58.273438 L 83.324219 58.273438 Z M 83.324219 35.773438 " fill-opacity="1" fill-rule="nonzero"/>
    </g>
  </g>
  <g clip-path="url(#4074c91590)" transform="matrix(1, 0, 0, 1, -70.32849890583054, 0.45519501013233565)">
    <g clip-path="url(#75f38ec4c2)">
      <path fill="#116bac" d="M 98.175781 38.550781 L 126.257812 38.550781 L 126.257812 60.074219 L 98.175781 60.074219 Z M 98.175781 38.550781 " fill-opacity="1" fill-rule="nonzero"/>
    </g>
  </g>
  <g clip-path="url(#07573a541a)" transform="matrix(1, 0, 0, 1, -70.32849890583054, 0.45519501013233565)">
    <g clip-path="url(#06394b6cc4)">
      <path fill="#116bac" d="M 92.324219 48.074219 L 114.28125 48.074219 L 114.28125 59.25 L 92.324219 59.25 Z M 92.324219 48.074219 " fill-opacity="1" fill-rule="nonzero"/>
    </g>
  </g>
  <g clip-path="url(#dadb54dc7e)" transform="matrix(1, 0, 0, 1, -70.32849890583054, 0.45519501013233565)">
    <g clip-path="url(#efa8bb82dd)">
      <path fill="#116bac" d="M 85.425781 45.226562 L 104.613281 45.226562 L 104.613281 58.050781 L 85.425781 58.050781 Z M 85.425781 45.226562 " fill-opacity="1" fill-rule="nonzero"/>
    </g>
  </g>
</svg>