<?xml version="1.0" encoding="utf-8"?>
<svg viewBox="0 0 375 374.999991" xmlns="http://www.w3.org/2000/svg">
  <defs>
    <clipPath id="e510977ee1">
      <path d="M 157 7.460938 L 195 7.460938 L 195 28.957031 L 157 28.957031 Z M 157 7.460938 " clip-rule="nonzero"/>
    </clipPath>
    <clipPath id="67152b3122">
      <path d="M 194.925781 10.050781 C 193.425781 17.699219 192.898438 19.5 192 21.074219 C 190.949219 22.726562 189.75 24.523438 188.101562 25.648438 C 186.300781 26.925781 183.449219 27.523438 181.273438 28.050781 C 179.476562 28.5 177.976562 28.949219 176.023438 28.875 C 173.550781 28.800781 170.101562 27.898438 167.625 27.074219 C 165.675781 26.398438 164.175781 25.648438 162.449219 24.601562 C 160.648438 23.476562 157.875 21.523438 157.273438 20.398438 C 156.976562 19.949219 156.976562 19.648438 157.050781 19.199219 C 157.199219 18.601562 157.726562 17.550781 158.324219 17.175781 C 158.925781 16.800781 160.050781 16.800781 160.726562 17.101562 C 161.25 17.324219 161.773438 17.851562 162 18.375 C 162.226562 18.898438 162.226562 19.800781 162 20.324219 C 161.851562 20.851562 161.476562 21.300781 160.949219 21.601562 C 160.351562 21.898438 159.226562 22.050781 158.550781 21.75 C 157.949219 21.449219 157.199219 20.550781 157.125 19.875 C 156.976562 19.125 157.351562 18.074219 157.800781 17.550781 C 158.324219 17.101562 159.449219 16.726562 160.125 16.875 C 160.800781 17.023438 161.699219 17.851562 162 18.449219 C 162.226562 18.898438 162.300781 19.5 162.074219 20.023438 C 161.851562 20.699219 161.101562 21.601562 160.5 21.824219 C 159.824219 22.050781 158.625 21.898438 158.101562 21.449219 C 157.5 20.925781 157.050781 19.351562 157.199219 18.601562 C 157.273438 18 157.800781 17.476562 158.324219 17.175781 C 158.773438 16.875 159.375 16.726562 160.125 16.875 C 161.699219 17.25 164.625 20.550781 167.023438 21.75 C 169.273438 22.875 171.601562 23.925781 174.226562 24.148438 C 177.300781 24.375 182.023438 23.699219 184.425781 22.5 C 186.148438 21.601562 187.125 20.476562 188.101562 18.75 C 189.449219 16.351562 189.375 10.125 190.726562 8.550781 C 191.398438 7.726562 192.449219 7.5 193.125 7.574219 C 193.648438 7.648438 194.175781 8.023438 194.476562 8.476562 C 194.773438 8.851562 194.925781 10.050781 194.925781 10.050781 " clip-rule="nonzero"/>
    </clipPath>
    <clipPath id="2db0b4c965">
      <path d="M 164.433594 44.660156 L 183.5 44.660156 L 183.5 52.765625 L 164.433594 52.765625 Z M 164.433594 44.660156 " clip-rule="nonzero"/>
    </clipPath>
    <clipPath id="db8fed409e">
      <path d="M 182.550781 48.824219 C 174.976562 52.800781 174.375 52.726562 173.476562 52.726562 C 172.273438 52.648438 170.398438 52.425781 169.5 51.976562 C 168.976562 51.75 168.976562 51.148438 168.449219 51 C 167.773438 50.773438 166.351562 51.75 165.675781 51.449219 C 165.074219 51.148438 164.550781 50.25 164.476562 49.574219 C 164.476562 48.976562 164.851562 48 165.375 47.625 C 165.824219 47.175781 166.875 47.023438 167.476562 47.175781 C 167.925781 47.25 168.449219 47.625 168.675781 48 C 168.976562 48.523438 169.199219 49.574219 168.976562 50.175781 C 168.75 50.773438 168 51.523438 167.398438 51.675781 C 166.648438 51.75 165.148438 51.226562 164.773438 50.550781 C 164.398438 49.875 164.476562 48.375 165.148438 47.773438 C 166.425781 46.648438 172.125 48.675781 174.976562 48.074219 C 177.449219 47.476562 179.925781 44.550781 181.425781 44.699219 C 182.324219 44.851562 183.226562 45.75 183.449219 46.425781 C 183.601562 47.101562 182.550781 48.824219 182.550781 48.824219 " clip-rule="nonzero"/>
    </clipPath>
    <clipPath id="dfe39e025c">
      <path d="M 146.710938 39.757812 L 193.316406 39.757812 L 193.316406 70.925781 L 146.710938 70.925781 Z M 146.710938 39.757812 " clip-rule="nonzero"/>
    </clipPath>
    <clipPath id="ea248ea504">
      <path d="M 191.773438 41.324219 C 193.875 51.300781 193.425781 53.699219 192.75 55.800781 C 192.074219 57.75 191.25 59.324219 189.824219 61.125 C 188.023438 63.375 185.023438 66.449219 182.398438 68.023438 C 180 69.375 177.898438 69.976562 174.898438 70.425781 C 170.625 71.023438 163.050781 71.25 158.851562 70.050781 C 155.773438 69.148438 153.375 67.273438 151.425781 65.625 C 149.773438 64.273438 148.125 62.851562 147.449219 61.273438 C 146.851562 59.925781 146.550781 57.824219 147 56.851562 C 147.375 55.949219 148.648438 55.199219 149.476562 55.199219 C 150.226562 55.199219 151.199219 55.875 151.574219 56.398438 C 151.875 56.699219 152.101562 57.523438 152.023438 57.523438 C 151.875 57.601562 150.074219 55.351562 150.148438 55.273438 C 150.226562 55.273438 151.199219 55.800781 151.5 56.25 C 151.875 56.851562 152.101562 57.976562 151.875 58.648438 C 151.648438 59.324219 150.75 60.148438 150.074219 60.300781 C 149.398438 60.449219 148.199219 60.300781 147.675781 59.773438 C 147.148438 59.175781 146.851562 57.449219 147.074219 56.699219 C 147.226562 56.101562 147.75 55.726562 148.199219 55.5 C 148.875 55.199219 150 55.199219 150.675781 55.5 C 151.273438 55.875 151.949219 56.851562 152.023438 57.523438 C 152.101562 58.273438 151.574219 59.324219 151.050781 59.773438 C 150.675781 60.148438 150.074219 60.449219 149.550781 60.375 C 148.726562 60.226562 147 58.875 146.851562 58.050781 C 146.699219 57.375 147.148438 56.25 147.75 55.800781 C 148.351562 55.351562 149.851562 55.050781 150.675781 55.5 C 151.800781 56.175781 151.800781 59.476562 153.148438 60.976562 C 154.648438 62.699219 156.976562 64.050781 159.675781 64.875 C 163.199219 65.925781 169.125 65.699219 172.726562 65.476562 C 175.273438 65.324219 177.148438 65.25 179.175781 64.199219 C 181.574219 63 184.273438 60.074219 185.851562 57.824219 C 187.125 56.101562 187.875 54.375 188.398438 52.5 C 188.925781 50.699219 189.148438 48.675781 188.925781 46.949219 C 188.773438 45.375 187.425781 43.648438 187.351562 42.523438 C 187.273438 41.851562 187.351562 41.324219 187.648438 40.949219 C 188.023438 40.425781 188.925781 39.824219 189.601562 39.898438 C 190.273438 39.898438 191.773438 41.324219 191.773438 41.324219 " clip-rule="nonzero"/>
    </clipPath>
    <clipPath id="00707665dc">
      <path d="M 176.964844 28.574219 L 185.863281 28.574219 L 185.863281 48.613281 L 176.964844 48.613281 Z M 176.964844 28.574219 " clip-rule="nonzero"/>
    </clipPath>
    <clipPath id="f29ece7249">
      <path d="M 185.550781 32.023438 C 181.351562 41.550781 182.324219 46.425781 181.199219 47.773438 C 180.601562 48.523438 179.25 48.75 178.574219 48.449219 C 177.898438 48.226562 177.226562 46.800781 177.148438 46.125 C 177.148438 45.675781 177.449219 45.148438 177.824219 44.851562 C 178.199219 44.476562 179.175781 44.101562 179.773438 44.175781 C 180.449219 44.25 181.199219 44.925781 181.5 45.449219 C 181.726562 46.050781 181.726562 47.101562 181.351562 47.550781 C 180.898438 48.148438 179.476562 48.675781 178.800781 48.523438 C 178.199219 48.449219 177.601562 47.925781 177.300781 47.101562 C 176.625 45.375 177.074219 40.726562 177.898438 37.726562 C 178.726562 34.574219 180.824219 29.773438 182.476562 28.875 C 183.300781 28.351562 184.5 28.648438 185.023438 29.023438 C 185.476562 29.324219 185.773438 29.925781 185.851562 30.449219 C 185.925781 30.898438 185.550781 32.023438 185.550781 32.023438 " clip-rule="nonzero"/>
    </clipPath>
    <clipPath id="d3bea679e7">
      <path d="M 159.539062 2.839844 L 188.429688 2.839844 L 188.429688 23 L 159.539062 23 Z M 159.539062 2.839844 " clip-rule="nonzero"/>
    </clipPath>
    <clipPath id="4b7fc3c093">
      <path d="M 187.425781 8.324219 C 185.324219 18.300781 184.875 18.75 184.351562 18.824219 C 183.675781 18.824219 182.625 18.300781 182.023438 17.476562 C 180.898438 15.75 180.300781 9.523438 180.601562 7.648438 C 180.75 6.75 180.976562 6.226562 181.5 5.925781 C 181.949219 5.550781 182.851562 5.398438 183.375 5.625 C 183.976562 5.851562 184.648438 6.675781 184.726562 7.5 C 184.875 8.925781 183.148438 11.625 181.875 13.5 C 180.449219 15.523438 178.125 18.976562 176.699219 19.199219 C 175.875 19.351562 174.75 18.601562 174.449219 18 C 174.148438 17.550781 174.75 16.949219 174.675781 16.199219 C 174.523438 15 172.800781 12.523438 172.800781 11.25 C 172.800781 10.574219 172.949219 9.898438 173.398438 9.523438 C 173.851562 9.148438 175.050781 8.925781 175.574219 9.148438 C 176.101562 9.375 176.550781 10.125 176.699219 10.648438 C 176.851562 11.324219 176.476562 12.148438 176.25 12.898438 C 176.023438 13.726562 175.875 14.550781 175.351562 15.375 C 174.675781 16.574219 173.175781 18.824219 172.050781 19.199219 C 171.226562 19.425781 170.25 19.050781 169.648438 18.375 C 168.601562 17.324219 167.773438 13.273438 167.851562 11.699219 C 167.851562 10.875 168 10.199219 168.449219 9.824219 C 168.976562 9.375 170.25 9.148438 170.925781 9.375 C 171.449219 9.601562 172.050781 10.351562 172.125 11.023438 C 172.125 11.851562 171.226562 13.125 170.398438 14.023438 C 169.5 15 167.851562 16.5 166.800781 16.574219 C 165.976562 16.648438 164.851562 16.050781 164.550781 15.375 C 164.25 14.699219 165.449219 13.5 165.300781 12.523438 C 165.148438 11.476562 163.800781 10.351562 163.425781 9.226562 C 163.125 8.324219 162.824219 7.351562 163.050781 6.601562 C 163.273438 5.925781 163.875 5.175781 164.398438 4.949219 C 165 4.726562 165.976562 4.800781 166.5 5.175781 C 167.023438 5.550781 167.476562 6.148438 167.550781 7.050781 C 167.625 9 164.851562 15.449219 163.425781 16.726562 C 162.75 17.25 162 17.25 161.476562 17.175781 C 160.949219 17.101562 160.5 16.800781 160.199219 16.273438 C 159.601562 15.300781 159.449219 12.375 159.601562 10.726562 C 159.75 9.300781 160.125 7.648438 160.726562 6.976562 C 161.101562 6.523438 161.699219 6.300781 162.226562 6.300781 C 162.824219 6.300781 163.648438 6.601562 164.101562 7.199219 C 164.773438 8.101562 164.925781 10.726562 164.851562 12 C 164.773438 12.976562 164.476562 13.875 164.101562 14.476562 C 163.800781 14.925781 163.351562 15.300781 162.824219 15.449219 C 162.375 15.601562 161.699219 15.675781 161.25 15.375 C 160.726562 15.148438 159.976562 14.476562 159.898438 13.800781 C 159.75 12.824219 160.425781 11.101562 161.101562 10.199219 C 161.773438 9.375 162.976562 8.625 163.875 8.476562 C 164.699219 8.324219 165.601562 8.398438 166.273438 9 C 167.398438 10.050781 168.523438 14.699219 168.449219 16.199219 C 168.375 16.949219 168.226562 17.398438 167.851562 17.773438 C 167.398438 18.226562 166.425781 18.601562 165.75 18.523438 C 165.074219 18.375 164.023438 17.476562 163.800781 16.726562 C 163.574219 15.898438 164.324219 14.550781 164.851562 13.726562 C 165.375 12.898438 165.976562 11.925781 166.875 11.550781 C 167.773438 11.25 169.351562 11.324219 170.175781 11.773438 C 171 12.226562 171.523438 13.125 171.976562 14.175781 C 172.574219 15.675781 172.800781 19.050781 172.726562 20.398438 C 172.648438 21.148438 172.574219 21.601562 172.199219 21.976562 C 171.824219 22.5 170.851562 22.949219 170.25 22.949219 C 169.726562 22.949219 169.125 22.648438 168.75 22.273438 C 168.375 21.898438 168.148438 21.523438 168.074219 20.773438 C 167.851562 18.824219 168.898438 12.148438 170.25 9.976562 C 171.074219 8.625 172.425781 7.425781 173.398438 7.425781 C 174.375 7.5 175.648438 8.625 176.175781 9.824219 C 177.074219 11.851562 176.699219 17.925781 175.726562 19.273438 C 175.273438 19.949219 174.300781 20.101562 173.699219 20.023438 C 173.175781 20.023438 172.648438 19.800781 172.273438 19.273438 C 171.675781 18.375 171.601562 15.675781 171.75 14.023438 C 171.898438 12.523438 172.351562 10.425781 173.101562 9.75 C 173.625 9.300781 174.601562 9.300781 175.125 9.523438 C 175.648438 9.675781 175.949219 10.050781 176.324219 10.574219 C 176.925781 11.398438 177.449219 12.976562 177.75 14.398438 C 178.125 16.125 178.273438 18.898438 178.125 20.25 C 177.976562 20.925781 177.898438 21.375 177.601562 21.75 C 177.148438 22.199219 176.175781 22.574219 175.574219 22.574219 C 175.050781 22.574219 174.449219 22.273438 174.148438 21.898438 C 173.773438 21.523438 173.550781 21.074219 173.550781 20.398438 C 173.398438 18.824219 174.300781 14.625 175.273438 12.824219 C 175.949219 11.625 176.925781 10.5 177.824219 10.273438 C 178.648438 10.125 179.925781 10.425781 180.601562 11.175781 C 181.726562 12.449219 182.550781 17.101562 182.175781 18.824219 C 181.949219 19.875 181.125 21 180.449219 21.148438 C 179.699219 21.300781 178.273438 20.550781 177.898438 19.726562 C 177.300781 18.523438 178.199219 15.375 178.726562 13.949219 C 179.023438 12.976562 179.398438 12.148438 180 11.699219 C 180.675781 11.324219 181.949219 11.25 182.550781 11.550781 C 183 11.773438 183.226562 12.148438 183.523438 12.75 C 184.125 14.175781 185.101562 18.75 184.574219 20.476562 C 184.273438 21.601562 183.523438 22.726562 182.773438 22.800781 C 182.023438 22.949219 180.75 22.125 180.300781 21.300781 C 179.625 20.101562 180 17.773438 180.226562 15.824219 C 180.523438 13.5 181.273438 9.601562 182.101562 8.324219 C 182.398438 7.726562 182.699219 7.425781 183.226562 7.273438 C 183.75 7.050781 184.726562 7.125 185.175781 7.425781 C 185.625 7.726562 185.851562 8.101562 186.074219 8.699219 C 186.601562 9.824219 186.824219 12.523438 186.824219 14.324219 C 186.824219 16.050781 186.75 18.375 186.074219 19.351562 C 185.699219 19.949219 184.949219 20.324219 184.351562 20.324219 C 183.75 20.324219 183 20.023438 182.550781 19.425781 C 181.726562 18.300781 181.648438 15.074219 181.5 12.976562 C 181.425781 10.949219 181.125 8.175781 181.726562 7.050781 C 182.101562 6.375 182.773438 6 183.375 5.925781 C 183.898438 5.851562 184.726562 6.074219 185.25 6.601562 C 186 7.425781 186.601562 9.824219 186.75 11.324219 C 186.898438 12.523438 186.898438 13.800781 186.375 14.773438 C 185.851562 15.898438 184.648438 17.25 183.601562 17.625 C 182.625 18 181.199219 17.851562 180.300781 17.550781 C 179.476562 17.175781 178.726562 16.648438 178.125 15.824219 C 177.375 14.699219 177.375 12.148438 176.625 11.101562 C 176.023438 10.273438 175.050781 10.273438 174.601562 9.523438 C 173.925781 8.324219 173.398438 5.101562 173.851562 4.050781 C 174.074219 3.449219 174.601562 3.148438 175.125 3 C 175.726562 2.851562 176.773438 3 177.300781 3.375 C 177.75 3.675781 178.050781 4.199219 178.125 4.800781 C 178.273438 5.398438 178.125 6.226562 177.675781 7.050781 C 176.925781 8.398438 174.523438 11.023438 173.101562 11.699219 C 172.199219 12.074219 171 12.148438 170.398438 11.699219 C 169.800781 11.324219 169.273438 9.898438 169.351562 9.226562 C 169.425781 8.699219 169.800781 8.25 170.324219 7.800781 C 171.148438 7.050781 173.324219 6.148438 174.75 6 C 176.175781 5.851562 177.898438 6 178.875 6.75 C 179.699219 7.425781 180.523438 9.300781 180.226562 10.199219 C 179.925781 11.25 177.675781 12.449219 176.324219 12.601562 C 174.898438 12.675781 172.5 11.851562 171.898438 10.875 C 171.375 9.976562 171.523438 8.324219 172.125 7.425781 C 172.949219 6.300781 175.875 5.625 177.523438 5.25 C 178.800781 4.949219 179.773438 4.726562 181.050781 4.875 C 182.550781 4.949219 184.875 5.023438 186.148438 6.148438 C 187.425781 7.273438 188.625 10.425781 188.324219 11.773438 C 188.175781 12.75 187.125 13.726562 186.449219 13.875 C 185.773438 14.023438 184.800781 13.648438 184.351562 13.199219 C 183.898438 12.75 183.675781 11.699219 183.75 11.101562 C 183.824219 10.648438 184.050781 10.125 184.5 9.824219 C 184.949219 9.449219 186 9.148438 186.601562 9.375 C 187.273438 9.601562 188.25 10.875 188.324219 11.550781 C 188.398438 12.074219 188.25 12.601562 187.875 12.976562 C 187.5 13.425781 186.523438 13.875 185.925781 13.949219 C 185.398438 13.949219 185.023438 13.800781 184.574219 13.425781 C 183.601562 12.675781 183 9.898438 181.574219 9.300781 C 179.925781 8.699219 175.125 11.101562 174.824219 10.574219 C 174.601562 10.199219 176.175781 8.398438 176.324219 8.476562 C 176.398438 8.550781 176.25 10.125 175.648438 10.648438 C 174.898438 11.476562 172.574219 12.226562 171.449219 12.148438 C 170.699219 12 169.949219 11.398438 169.574219 10.875 C 169.273438 10.425781 169.125 9.824219 169.351562 9.226562 C 169.800781 8.175781 172.800781 6.824219 173.550781 5.699219 C 174.074219 4.949219 173.699219 4.050781 174.148438 3.601562 C 174.75 3.148438 175.949219 2.699219 176.773438 3.074219 C 178.648438 3.976562 181.726562 14.023438 182.398438 13.875 C 182.851562 13.726562 181.125 8.324219 181.726562 7.050781 C 182.023438 6.375 182.773438 6 183.375 5.925781 C 183.898438 5.851562 184.726562 6 185.25 6.601562 C 186.375 8.175781 187.273438 16.199219 186.449219 18.375 C 186.074219 19.425781 185.101562 20.25 184.351562 20.324219 C 183.675781 20.398438 182.773438 19.875 182.324219 18.976562 C 181.273438 17.175781 181.199219 9.375 182.324219 7.875 C 182.925781 7.125 184.125 6.976562 184.726562 7.199219 C 185.398438 7.425781 186 8.25 186.148438 9.226562 C 186.449219 10.726562 184.800781 13.800781 184.574219 15.898438 C 184.351562 17.699219 185.101562 19.800781 184.574219 21.074219 C 184.199219 21.898438 183.449219 22.726562 182.773438 22.800781 C 182.023438 22.875 180.898438 22.199219 180.300781 21.300781 C 179.25 19.726562 178.800781 14.773438 179.175781 13.125 C 179.398438 12.300781 179.925781 11.699219 180.449219 11.476562 C 181.050781 11.175781 182.023438 11.175781 182.550781 11.550781 C 183.074219 11.925781 183.523438 12.824219 183.601562 13.800781 C 183.75 15.449219 182.773438 19.273438 181.726562 20.324219 C 181.125 21 180.074219 21.300781 179.398438 21.148438 C 178.800781 21 178.199219 20.398438 177.898438 19.726562 C 177.449219 18.75 177.074219 16.648438 177.449219 15.675781 C 177.824219 14.925781 179.101562 13.949219 179.398438 14.175781 C 179.925781 14.476562 178.875 19.949219 177.898438 21.300781 C 177.300781 22.125 176.324219 22.648438 175.574219 22.574219 C 174.898438 22.5 174 21.824219 173.625 20.925781 C 172.875 19.425781 173.851562 15.601562 173.398438 13.875 C 173.101562 12.898438 172.125 12.300781 172.125 11.625 C 172.125 10.949219 172.574219 10.125 173.101562 9.75 C 173.625 9.375 174.601562 9.300781 175.125 9.523438 C 175.726562 9.75 176.25 10.273438 176.550781 11.023438 C 177.074219 12.523438 177 16.800781 176.25 18.375 C 175.800781 19.273438 174.976562 19.949219 174.300781 20.023438 C 173.550781 20.101562 172.425781 19.574219 171.976562 18.824219 C 171.226562 17.476562 171.300781 12.75 172.125 11.625 C 172.648438 11.023438 174.074219 10.574219 174.523438 10.949219 C 175.425781 11.773438 173.324219 19.199219 172.648438 21 C 172.425781 21.675781 172.273438 22.125 171.824219 22.425781 C 171.375 22.800781 170.324219 23.023438 169.726562 22.875 C 169.050781 22.574219 168.375 21.675781 168.074219 20.773438 C 167.625 19.5 168.523438 15.675781 168.375 15.675781 C 168.300781 15.675781 168.226562 17.324219 167.851562 17.773438 C 167.398438 18.226562 166.425781 18.601562 165.75 18.523438 C 165.074219 18.375 164.023438 17.476562 163.800781 16.726562 C 163.574219 15.976562 164.550781 14.101562 164.324219 13.949219 C 164.023438 13.800781 163.050781 15.523438 162.300781 15.601562 C 161.625 15.675781 160.5 15.074219 160.050781 14.324219 C 159.375 13.050781 159.523438 9.226562 160.199219 7.875 C 160.574219 7.050781 161.550781 6.449219 162.226562 6.300781 C 162.75 6.226562 163.351562 6.449219 163.726562 6.824219 C 164.101562 7.125 164.398438 7.5 164.550781 8.175781 C 164.773438 9.300781 163.574219 12.074219 163.574219 13.5 C 163.574219 14.476562 164.25 15.226562 164.023438 15.824219 C 163.726562 16.5 162.601562 17.175781 162 17.25 C 161.476562 17.324219 160.875 17.023438 160.5 16.726562 C 160.125 16.273438 159.824219 15.675781 159.824219 14.773438 C 159.824219 12.976562 162.226562 7.574219 163.273438 6.074219 C 163.648438 5.476562 163.949219 5.101562 164.398438 4.949219 C 165.074219 4.800781 166.351562 4.949219 166.949219 5.550781 C 167.625 6.226562 167.773438 7.648438 167.925781 9.074219 C 168.148438 11.023438 168.601562 15.300781 167.773438 16.199219 C 167.324219 16.726562 166.273438 16.648438 165.75 16.425781 C 165.226562 16.273438 164.773438 15.824219 164.550781 15.375 C 164.324219 14.851562 164.25 13.875 164.550781 13.351562 C 165.074219 12.601562 167.101562 12.449219 167.851562 11.699219 C 168.449219 11.101562 168.300781 9.75 168.898438 9.449219 C 169.574219 9.148438 171.226562 9.449219 171.675781 10.050781 C 172.273438 10.800781 171.300781 13.949219 171.523438 13.949219 C 171.824219 14.023438 172.425781 10.199219 173.398438 9.523438 C 174.074219 9.074219 175.351562 8.925781 176.023438 9.449219 C 177.300781 10.425781 178.5 17.101562 177.824219 18.449219 C 177.523438 19.050781 176.773438 19.273438 176.25 19.273438 C 175.726562 19.273438 174.976562 18.898438 174.675781 18.449219 C 174.375 18 174.226562 17.324219 174.449219 16.648438 C 174.824219 15.375 177.300781 13.5 178.351562 11.773438 C 179.476562 10.050781 179.925781 7.125 181.125 6.226562 C 181.875 5.699219 183.148438 5.476562 183.824219 5.851562 C 184.574219 6.226562 184.726562 7.726562 185.101562 9.074219 C 185.625 11.101562 186.375 15.601562 185.925781 17.175781 C 185.699219 17.925781 185.25 18.375 184.800781 18.675781 C 184.351562 18.824219 183.824219 18.898438 183.375 18.75 C 182.851562 18.523438 182.175781 17.925781 181.949219 17.023438 C 181.425781 15.074219 182.324219 8.773438 183.523438 7.199219 C 184.125 6.375 185.324219 5.851562 186 6 C 186.675781 6.226562 187.425781 8.324219 187.425781 8.324219 " clip-rule="nonzero"/>
    </clipPath>
    <clipPath id="1282f02cfe">
      <path d="M 168.671875 41.191406 L 178.058594 41.191406 L 178.058594 48.703125 L 168.671875 48.703125 Z M 168.671875 41.191406 " clip-rule="nonzero"/>
    </clipPath>
    <clipPath id="f301b04684">
      <path d="M 176.699219 45.449219 C 171.148438 48.675781 170.773438 48.75 170.324219 48.523438 C 169.726562 48.226562 168.75 47.023438 168.75 46.273438 C 168.75 45.601562 169.800781 44.398438 170.476562 44.175781 C 171.074219 44.023438 172.125 44.25 172.574219 44.773438 C 173.023438 45.300781 173.324219 46.800781 173.023438 47.398438 C 172.800781 48 171.898438 48.601562 171.300781 48.675781 C 170.550781 48.675781 169.273438 47.925781 168.898438 47.25 C 168.601562 46.648438 168.675781 45.824219 169.125 45.148438 C 169.875 43.875 173.398438 41.699219 174.898438 41.324219 C 175.726562 41.101562 176.476562 41.175781 177 41.476562 C 177.449219 41.699219 177.824219 42.300781 177.976562 42.75 C 178.125 43.273438 178.050781 43.875 177.898438 44.398438 C 177.675781 44.851562 176.699219 45.449219 176.699219 45.449219 " clip-rule="nonzero"/>
    </clipPath>
    <clipPath id="fae7266ce2">
      <path d="M 164.191406 35.941406 L 180.773438 35.941406 L 180.773438 48.289062 L 164.191406 48.289062 Z M 164.191406 35.941406 " clip-rule="nonzero"/>
    </clipPath>
    <clipPath id="c93bcf5bd0">
      <path d="M 180 39.75 C 165.675781 48.375 164.851562 47.851562 164.476562 47.398438 C 164.25 47.023438 164.175781 46.574219 164.25 46.125 C 164.324219 45.675781 164.851562 44.851562 165.300781 44.625 C 165.824219 44.398438 166.726562 44.476562 167.175781 44.625 C 167.550781 44.851562 167.925781 45.148438 168 45.601562 C 168.226562 46.050781 168.148438 47.023438 167.925781 47.476562 C 167.699219 47.851562 167.324219 48.148438 166.949219 48.226562 C 166.351562 48.375 165.074219 48 164.625 47.550781 C 164.324219 47.25 164.175781 46.800781 164.25 46.351562 C 164.25 45.824219 164.550781 45.375 165.148438 44.699219 C 166.875 42.824219 175.351562 36.300781 178.050781 36 C 179.25 35.851562 180.375 36.375 180.675781 36.976562 C 181.050781 37.648438 180 39.75 180 39.75 " clip-rule="nonzero"/>
    </clipPath>
    <clipPath id="186c869c31">
      <path d="M 164.253906 29.253906 L 181.222656 29.253906 L 181.222656 45.359375 L 164.253906 45.359375 Z M 164.253906 29.253906 " clip-rule="nonzero"/>
    </clipPath>
    <clipPath id="26b18cc2f4">
      <path d="M 180.75 33 C 166.125 45.375 165.226562 45.148438 164.773438 44.699219 C 164.398438 44.25 164.324219 42.898438 164.550781 42.375 C 164.851562 41.925781 165.601562 41.476562 166.125 41.476562 C 166.648438 41.476562 167.476562 41.773438 167.773438 42.226562 C 168.074219 42.75 168.074219 44.101562 167.773438 44.550781 C 167.476562 45.074219 166.574219 45.300781 166.050781 45.300781 C 165.675781 45.300781 165.226562 45.074219 164.925781 44.851562 C 164.625 44.625 164.398438 44.175781 164.324219 43.800781 C 164.25 43.273438 164.324219 42.824219 164.851562 42.074219 C 166.273438 39.675781 175.800781 31.199219 178.050781 29.851562 C 178.726562 29.398438 178.949219 29.25 179.476562 29.324219 C 180 29.324219 180.898438 29.699219 181.125 30.226562 C 181.425781 30.824219 180.75 33 180.75 33 " clip-rule="nonzero"/>
    </clipPath>
    <clipPath id="20e7730508">
      <path d="M 160.082031 28.832031 L 182.691406 28.832031 L 182.691406 45.332031 L 160.082031 45.332031 Z M 160.082031 28.832031 " clip-rule="nonzero"/>
    </clipPath>
    <clipPath id="4d7d498cfc">
      <path d="M 181.574219 32.625 C 170.023438 39.148438 164.851562 44.550781 162.675781 45.148438 C 161.925781 45.375 161.324219 45.226562 160.949219 45 C 160.574219 44.773438 160.273438 44.398438 160.199219 44.023438 C 160.125 43.425781 160.574219 42.226562 160.949219 41.773438 C 161.25 41.550781 161.699219 41.398438 162.148438 41.476562 C 162.601562 41.550781 163.351562 42 163.648438 42.449219 C 163.875 42.75 164.023438 43.199219 163.875 43.648438 C 163.800781 44.101562 163.351562 44.851562 162.898438 45.074219 C 162.523438 45.300781 162.074219 45.375 161.699219 45.300781 C 161.175781 45.148438 160.5 44.625 160.273438 44.175781 C 160.050781 43.726562 160.050781 43.050781 160.425781 42.375 C 160.949219 41.324219 162.824219 40.273438 164.398438 39 C 166.425781 37.425781 169.050781 35.25 171.523438 33.601562 C 174.148438 31.949219 177.601562 29.25 179.625 28.949219 C 180.75 28.800781 181.875 29.101562 182.324219 29.625 C 182.699219 30 182.699219 30.976562 182.550781 31.5 C 182.398438 31.949219 181.574219 32.625 181.574219 32.625 " clip-rule="nonzero"/>
    </clipPath>
    <clipPath id="3bb48e4126">
      <path d="M 162.46875 27.542969 L 177.359375 27.542969 L 177.359375 36.429688 L 162.46875 36.429688 Z M 162.46875 27.542969 " clip-rule="nonzero"/>
    </clipPath>
    <clipPath id="e7abe7d24c">
      <path d="M 175.800781 31.648438 C 169.273438 33.675781 166.351562 36.300781 164.773438 36.300781 C 163.875 36.300781 162.976562 35.773438 162.675781 35.25 C 162.375 34.726562 162.523438 33.824219 162.75 33.375 C 162.898438 33 163.273438 32.699219 163.648438 32.550781 C 164.023438 32.398438 164.550781 32.324219 164.925781 32.476562 C 165.375 32.699219 166.050781 33.300781 166.273438 33.75 C 166.425781 34.125 166.425781 34.648438 166.273438 35.023438 C 166.050781 35.476562 165.449219 36.074219 164.925781 36.300781 C 164.550781 36.449219 164.101562 36.375 163.726562 36.226562 C 163.273438 36 162.601562 35.398438 162.523438 34.800781 C 162.375 34.199219 162.75 33.375 163.5 32.699219 C 165.148438 31.050781 172.199219 27.601562 174.601562 27.601562 C 175.726562 27.601562 176.773438 28.199219 177.148438 28.726562 C 177.449219 29.175781 177.375 29.773438 177.226562 30.226562 C 177 30.75 175.800781 31.648438 175.800781 31.648438 " clip-rule="nonzero"/>
    </clipPath>
    <clipPath id="2774440e0e">
      <path d="M 148.945312 43.339844 L 189.695312 43.339844 L 189.695312 65.820312 L 148.945312 65.820312 Z M 148.945312 43.339844 " clip-rule="nonzero"/>
    </clipPath>
    <clipPath id="4d14b29561">
      <path d="M 162.449219 50.101562 C 151.199219 54.898438 150.226562 54.148438 150 53.476562 C 149.773438 52.875 150.148438 52.050781 150.75 51.226562 C 152.023438 49.574219 156.976562 45.898438 158.851562 45.375 C 159.601562 45.148438 160.273438 45.226562 160.726562 45.523438 C 161.25 45.898438 161.851562 46.949219 161.699219 47.699219 C 161.324219 49.050781 156.898438 52.5 155.925781 52.199219 C 155.324219 52.050781 154.949219 50.398438 155.023438 49.875 C 155.023438 49.574219 155.25 49.273438 155.476562 49.199219 C 156 49.050781 157.425781 49.425781 157.800781 49.949219 C 158.25 50.476562 158.25 51.449219 157.949219 52.425781 C 157.351562 54.375 154.125 59.398438 152.324219 60.226562 C 151.351562 60.675781 149.925781 60.449219 149.476562 59.925781 C 149.023438 59.398438 148.949219 57.523438 149.476562 57.074219 C 149.925781 56.550781 151.199219 57.226562 152.25 56.925781 C 154.050781 56.324219 157.199219 53.25 158.699219 52.726562 C 159.375 52.5 159.75 52.351562 160.273438 52.574219 C 160.875 52.800781 161.699219 53.625 161.925781 54.449219 C 162.148438 55.574219 161.25 58.125 160.5 59.101562 C 160.050781 59.699219 159.375 60.226562 158.773438 60.300781 C 158.175781 60.300781 157.199219 60 156.824219 59.476562 C 156.375 59.023438 156 58.125 156.300781 57.449219 C 156.824219 56.398438 160.273438 54.75 161.625 54.601562 C 162.449219 54.523438 163.273438 54.824219 163.726562 55.273438 C 164.175781 55.726562 164.476562 56.699219 164.324219 57.300781 C 164.175781 57.976562 162.976562 58.351562 162.523438 59.175781 C 161.925781 60.148438 162.074219 62.175781 161.398438 62.851562 C 160.875 63.300781 159.824219 63.449219 159.226562 63.226562 C 158.625 63.074219 157.875 62.324219 157.726562 61.726562 C 157.5 61.125 157.574219 60.300781 158.101562 59.550781 C 159.074219 58.050781 164.476562 54.675781 166.050781 54.601562 C 166.726562 54.601562 167.175781 55.050781 167.476562 55.425781 C 167.773438 55.800781 168.074219 56.476562 168 57 C 168 57.601562 167.175781 58.125 166.949219 58.875 C 166.726562 59.773438 167.324219 61.351562 166.875 62.101562 C 166.574219 62.773438 165.824219 63.375 165.148438 63.449219 C 164.550781 63.523438 163.574219 63.226562 163.125 62.773438 C 162.675781 62.324219 162.300781 61.5 162.523438 60.675781 C 162.824219 59.25 165.976562 55.949219 167.476562 55.125 C 168.226562 54.675781 168.976562 54.601562 169.574219 54.675781 C 170.101562 54.824219 170.625 55.273438 170.925781 55.726562 C 171.226562 56.175781 171.300781 56.699219 171.226562 57.375 C 171.226562 58.425781 170.773438 60.074219 170.175781 61.425781 C 169.5 62.851562 168.226562 65.324219 167.101562 65.699219 C 166.351562 65.925781 165.074219 65.324219 164.625 64.800781 C 164.175781 64.273438 164.101562 63.523438 164.324219 62.625 C 164.925781 60.523438 169.949219 54.898438 171.824219 53.324219 C 172.648438 52.648438 173.25 52.125 173.925781 52.199219 C 174.824219 52.351562 176.398438 53.699219 176.699219 55.050781 C 177.074219 57.226562 174.375 63.523438 172.875 64.5 C 172.273438 64.949219 171.375 64.875 170.851562 64.574219 C 170.25 64.273438 169.648438 63.300781 169.648438 62.398438 C 169.574219 60.824219 171.675781 57.824219 172.875 56.25 C 173.925781 55.050781 175.199219 53.625 176.175781 53.625 C 176.925781 53.625 177.824219 54.449219 178.199219 55.199219 C 178.648438 56.101562 178.5 57.824219 178.273438 58.800781 C 178.050781 59.476562 177.824219 60.148438 177.300781 60.523438 C 176.699219 60.824219 175.351562 60.976562 174.75 60.601562 C 174.148438 60.226562 173.625 59.25 173.699219 58.273438 C 173.925781 56.324219 177.300781 51.523438 179.023438 50.25 C 180 49.5 181.125 49.125 181.875 49.351562 C 182.550781 49.5 183.148438 50.324219 183.449219 51.226562 C 183.824219 52.5 183.226562 55.5 182.851562 56.625 C 182.625 57.226562 182.398438 57.675781 181.949219 57.898438 C 181.425781 58.199219 180.074219 58.273438 179.476562 57.898438 C 178.949219 57.523438 178.574219 56.625 178.648438 55.648438 C 178.726562 53.699219 181.5 48.898438 182.699219 47.476562 C 183.300781 46.800781 183.675781 46.351562 184.273438 46.351562 C 184.949219 46.273438 186.074219 47.023438 186.675781 47.773438 C 187.351562 48.75 187.726562 50.851562 187.574219 52.125 C 187.5 53.175781 187.050781 54.449219 186.375 54.976562 C 185.773438 55.425781 184.5 55.648438 183.898438 55.273438 C 183.226562 54.898438 182.851562 53.699219 182.851562 52.5 C 182.851562 50.550781 184.5 45.675781 185.625 44.324219 C 186.148438 43.726562 186.75 43.351562 187.351562 43.351562 C 187.875 43.351562 188.773438 43.726562 189.074219 44.175781 C 189.449219 44.699219 189.601562 46.050781 189.449219 46.125 C 189.300781 46.199219 188.773438 45.449219 188.550781 45.523438 C 188.324219 45.601562 188.699219 47.023438 188.476562 47.476562 C 188.175781 47.925781 187.726562 48.300781 187.273438 48.449219 C 186.675781 48.601562 185.773438 48.449219 185.324219 48.074219 C 184.800781 47.699219 184.425781 46.648438 184.5 46.050781 C 184.574219 45.449219 185.175781 44.699219 185.699219 44.476562 C 186.300781 44.25 187.726562 44.550781 188.25 45 C 188.625 45.449219 188.851562 46.351562 188.699219 46.949219 C 188.550781 47.550781 187.875 48.226562 187.351562 48.449219 C 186.75 48.601562 185.773438 48.523438 185.324219 48.074219 C 184.800781 47.625 184.425781 46.273438 184.648438 45.601562 C 184.800781 45.074219 185.550781 44.476562 186.148438 44.324219 C 186.675781 44.175781 187.648438 44.398438 188.101562 44.851562 C 188.550781 45.300781 188.851562 46.425781 188.625 47.023438 C 188.476562 47.625 187.800781 48.300781 187.273438 48.449219 C 186.523438 48.523438 184.949219 47.925781 184.648438 47.25 C 184.351562 46.574219 185.023438 45 185.625 44.324219 C 186.148438 43.800781 187.199219 43.273438 187.800781 43.425781 C 188.476562 43.5 189.300781 44.25 189.523438 45.148438 C 189.976562 46.949219 187.949219 53.101562 186.75 54.601562 C 186.148438 55.273438 185.550781 55.574219 184.875 55.5 C 184.199219 55.5 183.148438 54.824219 182.851562 54.074219 C 182.550781 53.175781 183.75 51.523438 183.675781 50.324219 C 183.675781 49.351562 182.625 48.148438 182.699219 47.476562 C 182.773438 47.101562 183 46.875 183.375 46.726562 C 183.824219 46.425781 184.726562 46.199219 185.25 46.425781 C 185.851562 46.648438 186.601562 47.398438 186.75 48.300781 C 186.898438 50.175781 184.050781 55.648438 182.625 57.148438 C 181.949219 57.898438 181.125 58.351562 180.449219 58.273438 C 179.773438 58.199219 178.949219 57.523438 178.648438 56.625 C 178.125 55.199219 178.875 50.625 179.925781 49.726562 C 180.523438 49.199219 181.800781 49.199219 182.324219 49.574219 C 182.925781 49.949219 183.449219 51.148438 183.226562 52.199219 C 182.925781 54.375 178.425781 59.925781 176.773438 60.75 C 176.175781 61.125 175.648438 60.976562 175.199219 60.824219 C 174.75 60.675781 174.226562 60.226562 174 59.851562 C 173.773438 59.398438 173.625 58.800781 173.699219 58.273438 C 173.851562 57.675781 174.300781 56.476562 174.75 56.398438 C 175.273438 56.324219 176.625 57.449219 176.699219 58.273438 C 176.851562 59.773438 173.773438 64.199219 172.425781 64.726562 C 171.75 65.023438 170.851562 64.648438 170.398438 64.273438 C 169.949219 63.898438 169.574219 63.226562 169.648438 62.398438 C 169.648438 60.75 171.601562 55.800781 172.875 55.125 C 173.625 54.824219 175.050781 55.199219 175.199219 55.800781 C 175.648438 57.148438 169.125 65.023438 167.101562 65.699219 C 166.273438 66 165.449219 65.625 165 65.175781 C 164.476562 64.800781 164.175781 64.050781 164.175781 63.148438 C 164.175781 61.425781 165.75 56.773438 167.023438 55.574219 C 167.773438 54.824219 168.898438 54.601562 169.574219 54.675781 C 170.175781 54.824219 170.699219 55.273438 170.925781 55.726562 C 171.226562 56.25 171.375 57.074219 171.074219 57.898438 C 170.476562 59.476562 166.726562 63.074219 165.148438 63.449219 C 164.398438 63.601562 163.574219 63.226562 163.125 62.773438 C 162.675781 62.324219 162.449219 61.574219 162.523438 60.675781 C 162.523438 59.25 163.5 55.800781 164.398438 54.976562 C 164.925781 54.601562 165.523438 54.523438 166.050781 54.601562 C 166.726562 54.824219 167.773438 55.726562 168 56.398438 C 168.148438 57.074219 167.925781 57.75 167.398438 58.5 C 166.425781 59.925781 162.449219 62.550781 160.875 63.148438 C 160.199219 63.375 159.75 63.449219 159.226562 63.226562 C 158.699219 63 157.949219 62.25 157.726562 61.726562 C 157.5 61.199219 157.574219 60.75 157.800781 60.074219 C 158.25 58.726562 160.425781 55.050781 161.625 54.601562 C 162.375 54.375 163.273438 54.824219 163.726562 55.273438 C 164.175781 55.726562 164.476562 56.699219 164.324219 57.300781 C 164.25 57.898438 163.648438 58.800781 163.050781 59.023438 C 162.449219 59.25 161.324219 58.351562 160.726562 58.574219 C 160.125 58.800781 159.898438 59.925781 159.300781 60.148438 C 158.625 60.375 157.273438 60 156.824219 59.476562 C 156.375 59.023438 156.226562 58.199219 156.300781 57.449219 C 156.375 56.625 157.050781 55.574219 157.5 54.75 C 157.875 54 158.175781 53.101562 158.699219 52.726562 C 159.148438 52.5 159.75 52.425781 160.273438 52.574219 C 160.800781 52.726562 161.550781 53.398438 161.773438 53.925781 C 162 54.375 162.074219 54.976562 161.773438 55.5 C 161.398438 56.398438 159.898438 57.375 158.476562 58.199219 C 156.601562 59.175781 153.074219 60.75 151.351562 60.601562 C 150.375 60.523438 149.550781 60.074219 149.175781 59.476562 C 148.875 58.949219 148.875 58.351562 149.175781 57.449219 C 149.773438 55.574219 153.75 49.726562 155.476562 49.199219 C 156.375 48.976562 157.425781 49.425781 157.800781 49.949219 C 158.25 50.476562 158.25 51.824219 157.949219 52.425781 C 157.648438 52.949219 156.75 53.398438 156 53.398438 C 155.023438 53.398438 153.074219 52.648438 152.699219 51.824219 C 152.324219 51.148438 152.773438 49.949219 153.300781 49.199219 C 153.75 48.523438 154.648438 48.148438 155.550781 47.625 C 156.75 46.875 158.699219 45.226562 159.824219 45.226562 C 160.5 45.226562 161.175781 45.75 161.398438 46.273438 C 161.699219 46.726562 161.851562 47.476562 161.550781 48.148438 C 160.875 49.574219 157.5 51.898438 155.550781 53.101562 C 154.125 54 152.25 55.125 151.273438 54.898438 C 150.675781 54.75 150.148438 54 150 53.476562 C 149.851562 52.875 149.925781 52.199219 150.375 51.523438 C 151.648438 49.949219 158.023438 46.574219 160.425781 46.273438 C 161.550781 46.125 162.675781 46.425781 163.199219 46.949219 C 163.574219 47.398438 163.574219 48.375 163.425781 48.898438 C 163.273438 49.425781 162.449219 50.101562 162.449219 50.101562 " clip-rule="nonzero"/>
    </clipPath>
    <clipPath id="d951d6137b">
      <path d="M 159.027344 4.007812 L 183.6875 4.007812 L 183.6875 17.441406 L 159.027344 17.441406 Z M 159.027344 4.007812 " clip-rule="nonzero"/>
    </clipPath>
    <clipPath id="c136523ef1">
      <path d="M 159.074219 15.226562 C 159.824219 10.050781 160.050781 9 160.800781 8.101562 C 161.773438 6.976562 163.648438 5.851562 165 5.25 C 165.976562 4.800781 166.648438 4.648438 167.925781 4.5 C 169.949219 4.273438 173.625 3.675781 176.101562 4.273438 C 178.425781 4.800781 181.125 6.601562 182.324219 7.726562 C 183 8.324219 183.523438 8.851562 183.601562 9.523438 C 183.675781 10.199219 183.226562 11.175781 182.773438 11.625 C 182.398438 12 181.875 12.226562 181.351562 12.148438 C 180.75 12.148438 179.699219 11.699219 179.324219 11.25 C 178.949219 10.875 178.800781 10.273438 178.800781 9.824219 C 178.875 9.148438 179.398438 8.175781 179.851562 7.800781 C 180.300781 7.5 180.824219 7.273438 181.351562 7.425781 C 182.023438 7.574219 183.300781 8.625 183.523438 9.300781 C 183.75 9.75 183.601562 10.351562 183.375 10.800781 C 183.074219 11.324219 182.398438 12.074219 181.574219 12.148438 C 180.148438 12.300781 177.675781 9.375 175.273438 8.925781 C 172.574219 8.398438 168 9.074219 166.199219 9.898438 C 165.300781 10.273438 164.925781 10.726562 164.476562 11.550781 C 163.648438 12.824219 163.726562 16.351562 162.75 17.101562 C 162.074219 17.625 160.726562 17.476562 160.125 17.101562 C 159.523438 16.800781 159.074219 15.226562 159.074219 15.226562 " clip-rule="nonzero"/>
    </clipPath>
    <clipPath id="d7ee664612">
      <path d="M 156.492188 7.84375 L 166.320312 7.84375 L 166.320312 18.351562 L 156.492188 18.351562 Z M 156.492188 7.84375 " clip-rule="nonzero"/>
    </clipPath>
    <clipPath id="285efb78b8">
      <path d="M 156.523438 17.25 C 163.050781 8.925781 164.398438 7.875 165.148438 7.949219 C 165.675781 7.949219 166.273438 8.476562 166.273438 8.851562 C 166.351562 9.523438 164.324219 10.574219 163.5 11.773438 C 162.601562 13.125 162.148438 16.273438 161.398438 16.875 C 161.101562 17.101562 160.648438 17.175781 160.425781 17.023438 C 160.199219 16.875 160.050781 16.125 160.199219 15.976562 C 160.351562 15.75 161.101562 15.675781 161.324219 15.824219 C 161.476562 15.976562 161.550781 16.726562 161.324219 16.875 C 161.175781 17.101562 160.5 17.101562 160.273438 16.949219 C 160.125 16.726562 160.050781 16.199219 160.199219 15.976562 C 160.351562 15.824219 161.023438 15.601562 161.25 15.75 C 161.398438 15.898438 161.476562 16.800781 161.25 16.949219 C 161.101562 17.101562 160.273438 16.949219 160.125 16.648438 C 159.824219 16.199219 160.199219 15.148438 160.425781 14.324219 C 160.800781 13.273438 161.625 11.773438 162.449219 10.726562 C 163.273438 9.601562 165 7.726562 165.601562 7.875 C 165.976562 7.875 166.351562 8.625 166.199219 9 C 166.050781 9.75 163.875 10.199219 162.75 11.324219 C 161.023438 12.824219 158.925781 17.398438 157.800781 18.074219 C 157.425781 18.300781 156.976562 18.375 156.824219 18.226562 C 156.601562 18.074219 156.523438 17.25 156.523438 17.25 " clip-rule="nonzero"/>
    </clipPath>
    <clipPath id="4d53b88570">
      <path d="M 154.660156 4.816406 L 166.265625 4.816406 L 166.265625 18.878906 L 154.660156 18.878906 Z M 154.660156 4.816406 " clip-rule="nonzero"/>
    </clipPath>
    <clipPath id="76eb99c238">
      <path d="M 157.574219 17.398438 C 156.898438 9.898438 158.023438 7.726562 159.300781 6.601562 C 160.574219 5.550781 163.125 4.800781 164.25 4.949219 C 164.925781 5.023438 165.449219 5.476562 165.75 5.925781 C 166.050781 6.375 166.351562 6.976562 166.199219 7.648438 C 165.824219 8.925781 162.601562 10.648438 161.476562 12.375 C 160.425781 13.949219 160.273438 16.5 159.375 17.625 C 158.773438 18.300781 158.101562 18.824219 157.425781 18.824219 C 156.75 18.898438 155.699219 18.375 155.324219 17.925781 C 154.949219 17.550781 154.726562 16.949219 154.726562 16.425781 C 154.800781 15.824219 155.324219 14.773438 155.773438 14.398438 C 156.148438 14.023438 156.75 13.875 157.273438 13.949219 C 157.949219 14.023438 158.925781 14.476562 159.300781 15.074219 C 159.675781 15.675781 159.824219 16.800781 159.449219 17.398438 C 159.074219 18.074219 157.648438 18.976562 156.898438 18.824219 C 156.074219 18.75 154.949219 17.699219 154.800781 16.726562 C 154.425781 15.074219 156.449219 11.175781 157.648438 9.226562 C 158.550781 7.726562 159.601562 6.449219 160.800781 5.699219 C 161.851562 5.101562 163.351562 4.726562 164.25 4.949219 C 165 5.101562 165.824219 5.773438 166.050781 6.449219 C 166.273438 7.199219 165.976562 8.625 165.375 9.226562 C 164.773438 9.898438 162.824219 9.226562 162.148438 10.125 C 161.023438 11.398438 162.226562 16.726562 161.324219 17.925781 C 160.800781 18.601562 159.898438 18.75 159.300781 18.675781 C 158.699219 18.601562 157.574219 17.398438 157.574219 17.398438 " clip-rule="nonzero"/>
    </clipPath>
    <clipPath id="2d723ad238">
      <path d="M 160.339844 26.714844 L 167.285156 26.714844 L 167.285156 41.414062 L 160.339844 41.414062 Z M 160.339844 26.714844 " clip-rule="nonzero"/>
    </clipPath>
    <clipPath id="e784590636">
      <path d="M 167.25 29.324219 C 165.824219 37.875 165.300781 39.976562 164.324219 40.800781 C 163.574219 41.324219 162.226562 41.550781 161.550781 41.25 C 160.875 40.875 160.351562 39.375 160.351562 38.699219 C 160.425781 38.25 160.726562 37.726562 161.101562 37.425781 C 161.625 37.125 162.601562 36.824219 163.199219 36.976562 C 163.800781 37.125 164.550781 37.875 164.773438 38.476562 C 165 39.074219 164.851562 40.125 164.476562 40.574219 C 163.949219 41.101562 162.449219 41.625 161.773438 41.324219 C 161.101562 41.101562 160.425781 39.824219 160.351562 38.925781 C 160.273438 37.875 161.476562 36.75 161.925781 35.324219 C 162.523438 33.226562 162.375 28.875 163.199219 27.675781 C 163.574219 27.074219 164.023438 26.851562 164.550781 26.773438 C 165 26.699219 165.675781 26.699219 166.125 27 C 166.648438 27.375 167.25 29.324219 167.25 29.324219 " clip-rule="nonzero"/>
    </clipPath>
    <clipPath id="1fcee39206">
      <path d="M 150.738281 43.953125 L 159.480469 43.953125 L 159.480469 49.746094 L 150.738281 49.746094 Z M 150.738281 43.953125 " clip-rule="nonzero"/>
    </clipPath>
    <clipPath id="d336047b2c">
      <path d="M 157.199219 48.675781 C 151.648438 49.574219 150.75 48.449219 150.75 47.699219 C 150.675781 46.949219 151.648438 45.675781 152.324219 45.449219 C 152.925781 45.148438 153.898438 45.375 154.425781 45.75 C 154.949219 46.199219 155.324219 47.101562 155.324219 47.773438 C 155.25 48.375 154.726562 49.273438 154.199219 49.574219 C 153.523438 49.875 151.949219 49.726562 151.425781 49.273438 C 150.898438 48.75 150.601562 47.25 150.976562 46.5 C 151.5 45.449219 153.976562 44.398438 155.101562 44.101562 C 155.925781 43.875 156.601562 44.023438 157.199219 44.101562 C 157.800781 44.25 158.324219 44.324219 158.699219 44.699219 C 159.148438 45.148438 159.523438 46.050781 159.449219 46.648438 C 159.449219 47.175781 159.074219 47.773438 158.699219 48.074219 C 158.324219 48.449219 157.199219 48.675781 157.199219 48.675781 " clip-rule="nonzero"/>
    </clipPath>
  </defs>
  <g clip-path="url(#e510977ee1)" transform="matrix(1, 0, 0, 1, -142.70539869247503, -0.6828039890926405)">
    <g clip-path="url(#67152b3122)">
      <path fill="#1e1e1e" d="M 154.050781 4.574219 L 197.894531 4.574219 L 197.894531 31.949219 L 154.050781 31.949219 Z M 154.050781 4.574219 " fill-opacity="1" fill-rule="nonzero"/>
    </g>
  </g>
  <g clip-path="url(#2db0b4c965)" transform="matrix(1, 0, 0, 1, -142.70539869247503, -0.6828039890926405)">
    <g clip-path="url(#db8fed409e)">
      <path fill="#1e1e1e" d="M 161.476562 41.699219 L 186.457031 41.699219 L 186.457031 55.726562 L 161.476562 55.726562 Z M 161.476562 41.699219 " fill-opacity="1" fill-rule="nonzero"/>
    </g>
  </g>
  <g clip-path="url(#dfe39e025c)" transform="matrix(1, 0, 0, 1, -142.70539869247503, -0.6828039890926405)">
    <g clip-path="url(#ea248ea504)">
      <path fill="#1e1e1e" d="M 143.851562 36.898438 L 196.75 36.898438 L 196.75 73.5 L 143.851562 73.5 Z M 143.851562 36.898438 " fill-opacity="1" fill-rule="nonzero"/>
    </g>
  </g>
  <g clip-path="url(#00707665dc)" transform="matrix(1, 0, 0, 1, -142.70539869247503, -0.6828039890926405)">
    <g clip-path="url(#f29ece7249)">
      <path fill="#1e1e1e" d="M 174.148438 25.875 L 188.851562 25.875 L 188.851562 51.601562 L 174.148438 51.601562 Z M 174.148438 25.875 " fill-opacity="1" fill-rule="nonzero"/>
    </g>
  </g>
  <g clip-path="url(#d3bea679e7)" transform="matrix(1, 0, 0, 1, -142.70539869247503, -0.6828039890926405)">
    <g clip-path="url(#4b7fc3c093)">
      <path fill="#209311" d="M 156.601562 0 L 191.367188 0 L 191.367188 25.949219 L 156.601562 25.949219 Z M 156.601562 0 " fill-opacity="1" fill-rule="nonzero"/>
    </g>
  </g>
  <g clip-path="url(#1282f02cfe)" transform="matrix(1, 0, 0, 1, -142.70539869247503, -0.6828039890926405)">
    <g clip-path="url(#f301b04684)">
      <path fill="#209311" d="M 165.75 38.324219 L 181.03125 38.324219 L 181.03125 51.675781 L 165.75 51.675781 Z M 165.75 38.324219 " fill-opacity="1" fill-rule="nonzero"/>
    </g>
  </g>
  <g clip-path="url(#fae7266ce2)" transform="matrix(1, 0, 0, 1, -142.70539869247503, -0.6828039890926405)">
    <g clip-path="url(#c93bcf5bd0)">
      <path fill="#209311" d="M 161.25 33 L 183.714844 33 L 183.714844 51.375 L 161.25 51.375 Z M 161.25 33 " fill-opacity="1" fill-rule="nonzero"/>
    </g>
  </g>
  <g clip-path="url(#186c869c31)" transform="matrix(1, 0, 0, 1, -142.70539869247503, -0.6828039890926405)">
    <g clip-path="url(#26b18cc2f4)">
      <path fill="#209311" d="M 161.324219 26.324219 L 184.234375 26.324219 L 184.234375 48.375 L 161.324219 48.375 Z M 161.324219 26.324219 " fill-opacity="1" fill-rule="nonzero"/>
    </g>
  </g>
  <g clip-path="url(#20e7730508)" transform="matrix(1, 0, 0, 1, -142.70539869247503, -0.6828039890926405)">
    <g clip-path="url(#4d7d498cfc)">
      <path fill="#209311" d="M 157.199219 25.949219 L 185.660156 25.949219 L 185.660156 48.300781 L 157.199219 48.300781 Z M 157.199219 25.949219 " fill-opacity="1" fill-rule="nonzero"/>
    </g>
  </g>
  <g clip-path="url(#3bb48e4126)" transform="matrix(1, 0, 0, 1, -142.70539869247503, -0.6828039890926405)">
    <g clip-path="url(#e7abe7d24c)">
      <path fill="#209311" d="M 159.523438 24.601562 L 180.300781 24.601562 L 180.300781 39.375 L 159.523438 39.375 Z M 159.523438 24.601562 " fill-opacity="1" fill-rule="nonzero"/>
    </g>
  </g>
  <g clip-path="url(#2774440e0e)" transform="matrix(1, 0, 0, 1, -142.70539869247503, -0.6828039890926405)">
    <g clip-path="url(#4d14b29561)">
      <path fill="#209311" d="M 146.175781 40.351562 L 192.574219 40.351562 L 192.574219 68.699219 L 146.175781 68.699219 Z M 146.175781 40.351562 " fill-opacity="1" fill-rule="nonzero"/>
    </g>
  </g>
  <g clip-path="url(#d951d6137b)" transform="matrix(1, 0, 0, 1, -142.70539869247503, -0.6828039890926405)">
    <g clip-path="url(#c136523ef1)">
      <path fill="#209311" d="M 156.074219 1.273438 L 186.566406 1.273438 L 186.566406 20.175781 L 156.074219 20.175781 Z M 156.074219 1.273438 " fill-opacity="1" fill-rule="nonzero"/>
    </g>
  </g>
  <g clip-path="url(#d7ee664612)" transform="matrix(1, 0, 0, 1, -142.70539869247503, -0.6828039890926405)">
    <g clip-path="url(#285efb78b8)">
      <path fill="#000000" d="M 153.523438 4.875 L 169.351562 4.875 L 169.351562 21.316406 L 153.523438 21.316406 Z M 153.523438 4.875 " fill-opacity="1" fill-rule="nonzero"/>
    </g>
  </g>
  <g clip-path="url(#4d53b88570)" transform="matrix(1, 0, 0, 1, -142.70539869247503, -0.6828039890926405)">
    <g clip-path="url(#76eb99c238)">
      <path fill="#000000" d="M 151.726562 1.949219 L 169.199219 1.949219 L 169.199219 21.882812 L 151.726562 21.882812 Z M 151.726562 1.949219 " fill-opacity="1" fill-rule="nonzero"/>
    </g>
  </g>
  <g clip-path="url(#2d723ad238)" transform="matrix(1, 0, 0, 1, -142.70539869247503, -0.6828039890926405)">
    <g clip-path="url(#e784590636)">
      <path fill="#000000" d="M 157.351562 23.773438 L 170.324219 23.773438 L 170.324219 44.402344 L 157.351562 44.402344 Z M 157.351562 23.773438 " fill-opacity="1" fill-rule="nonzero"/>
    </g>
  </g>
  <g clip-path="url(#1fcee39206)" transform="matrix(1, 0, 0, 1, -142.70539869247503, -0.6828039890926405)">
    <g clip-path="url(#d336047b2c)">
      <path fill="#000000" d="M 147.75 41.101562 L 162.515625 41.101562 L 162.515625 52.875 L 147.75 52.875 Z M 147.75 41.101562 " fill-opacity="1" fill-rule="nonzero"/>
    </g>
  </g>
</svg>