<?xml version="1.0" encoding="utf-8"?>
<svg viewBox="0 0 375 374.999991" xmlns="http://www.w3.org/2000/svg">
  <defs>
    <clipPath id="f7497f3b58">
      <path d="M 11.085938 6.28125 L 42.324219 6.28125 L 42.324219 29.9375 L 11.085938 29.9375 Z M 11.085938 6.28125 " clip-rule="nonzero"/>
    </clipPath>
    <clipPath id="614a2ab3c2">
      <path d="M 34.050781 13.425781 C 33.300781 7.949219 34.125 6.898438 34.875 6.523438 C 35.699219 6.148438 36.824219 6.300781 37.726562 6.75 C 39 7.425781 40.574219 9.449219 41.324219 11.324219 C 42.226562 13.425781 42.523438 16.574219 42.148438 19.125 C 41.851562 21.601562 40.425781 24.898438 39.226562 26.398438 C 38.476562 27.300781 37.875 27.601562 36.824219 28.125 C 35.398438 28.800781 33.449219 29.773438 31.351562 29.851562 C 28.726562 29.925781 24.601562 29.101562 22.199219 27.824219 C 20.101562 26.773438 18.824219 25.125 17.175781 23.324219 C 15.226562 21.148438 11.851562 17.476562 11.324219 15.449219 C 11.023438 14.398438 11.175781 13.351562 11.625 12.824219 C 12.074219 12.300781 14.175781 12.300781 14.175781 12.226562 C 14.175781 12.148438 13.273438 12 13.273438 12.074219 C 13.199219 12.226562 15.300781 12.976562 15.601562 13.648438 C 15.824219 14.25 15.601562 15.300781 15.226562 15.75 C 14.851562 16.273438 13.800781 16.648438 13.199219 16.648438 C 12.75 16.726562 12.148438 16.5 11.851562 16.125 C 11.398438 15.601562 11.023438 14.101562 11.25 13.351562 C 11.476562 12.75 12.375 12.148438 12.976562 12.074219 C 13.648438 12 14.625 12.300781 15.074219 12.75 C 15.523438 13.351562 15.601562 14.925781 15.375 15.601562 C 15.148438 16.050781 14.699219 16.425781 14.25 16.5 C 13.574219 16.648438 12.148438 16.273438 11.625 15.898438 C 11.324219 15.675781 11.175781 15.300781 11.101562 14.925781 C 11.101562 14.324219 11.476562 12.898438 12.074219 12.449219 C 12.523438 12.074219 13.351562 11.851562 14.175781 12.226562 C 16.425781 13.050781 20.324219 21.375 23.851562 23.324219 C 26.550781 24.824219 30.523438 24.898438 32.625 24.675781 C 33.75 24.601562 34.5 24.375 35.25 23.699219 C 36.226562 22.800781 37.050781 20.851562 37.351562 19.125 C 37.648438 17.175781 37.273438 13.949219 36.675781 12.449219 C 36.300781 11.625 34.949219 11.101562 35.101562 10.648438 C 35.25 10.273438 37.050781 9.675781 37.574219 9.976562 C 38.175781 10.351562 38.476562 12 38.476562 12.824219 C 38.398438 13.351562 38.101562 13.949219 37.726562 14.25 C 37.351562 14.625 36.75 14.925781 36.226562 14.851562 C 35.550781 14.773438 34.050781 13.425781 34.050781 13.425781 " clip-rule="nonzero"/>
    </clipPath>
    <clipPath id="d1a4f0f141">
      <path d="M 32.582031 37.230469 L 45.558594 37.230469 L 45.558594 46.886719 L 32.582031 46.886719 Z M 32.582031 37.230469 " clip-rule="nonzero"/>
    </clipPath>
    <clipPath id="4fa1c48a7b">
      <path d="M 45.148438 41.023438 C 41.101562 45.300781 40.199219 45.976562 39.074219 46.351562 C 37.800781 46.800781 35.773438 46.949219 34.648438 46.726562 C 34.050781 46.574219 33.523438 46.425781 33.226562 45.976562 C 32.773438 45.375 32.550781 43.949219 32.851562 43.273438 C 33.226562 42.601562 34.574219 42 35.324219 42 C 35.925781 42.074219 36.824219 42.75 37.125 43.351562 C 37.351562 43.949219 37.351562 45 37.050781 45.523438 C 36.675781 46.125 35.773438 46.648438 35.175781 46.726562 C 34.648438 46.800781 34.050781 46.648438 33.675781 46.351562 C 33.148438 45.976562 32.625 45 32.625 44.398438 C 32.550781 43.949219 32.699219 43.351562 33.074219 42.976562 C 33.449219 42.523438 34.425781 42 35.023438 42 C 35.699219 42 36.601562 42.523438 36.976562 43.125 C 37.351562 43.648438 37.425781 44.699219 37.125 45.300781 C 36.824219 45.898438 35.925781 46.648438 35.25 46.726562 C 34.5 46.800781 33.300781 46.050781 32.851562 45.449219 C 32.550781 45 32.550781 44.324219 32.625 43.800781 C 32.773438 43.273438 33.074219 42.75 33.601562 42.449219 C 34.574219 41.773438 37.050781 42.300781 38.550781 41.550781 C 40.199219 40.726562 41.625 37.5 42.976562 37.273438 C 43.800781 37.125 45 37.800781 45.375 38.398438 C 45.75 39 45.148438 41.023438 45.148438 41.023438 " clip-rule="nonzero"/>
    </clipPath>
    <clipPath id="2ecd52e7fe">
      <path d="M 14.304688 33.054688 L 61.53125 33.054688 L 61.53125 64.734375 L 14.304688 64.734375 Z M 14.304688 33.054688 " clip-rule="nonzero"/>
    </clipPath>
    <clipPath id="ddb7b88191">
      <path d="M 56.773438 33.523438 C 60.824219 39.148438 61.425781 42.898438 61.425781 45.449219 C 61.425781 47.550781 61.199219 49.726562 60.375 51.375 C 59.625 52.800781 58.5 53.625 56.925781 54.824219 C 54.375 56.773438 49.800781 59.476562 45.75 61.050781 C 41.476562 62.773438 35.324219 63.898438 31.800781 64.351562 C 29.773438 64.574219 28.574219 64.800781 26.773438 64.351562 C 24.449219 63.824219 21.226562 61.949219 19.199219 60.449219 C 17.699219 59.324219 16.5 57.976562 15.675781 56.773438 C 15.074219 55.875 14.324219 54.898438 14.398438 54.226562 C 14.550781 53.699219 15.601562 53.550781 15.898438 52.949219 C 16.273438 52.199219 15.675781 50.625 16.125 49.949219 C 16.425781 49.425781 17.101562 49.050781 17.699219 48.976562 C 18.449219 48.898438 19.800781 49.425781 20.324219 50.023438 C 20.773438 50.625 20.925781 51.824219 20.625 52.5 C 20.25 53.25 18.824219 54.226562 17.925781 54.226562 C 17.175781 54.226562 16.199219 53.476562 15.898438 52.875 C 15.523438 52.199219 15.449219 51.074219 15.824219 50.398438 C 16.125 49.726562 17.101562 49.050781 17.773438 48.976562 C 18.523438 48.824219 19.648438 49.199219 20.101562 49.800781 C 20.625 50.476562 20.699219 52.273438 20.398438 53.023438 C 20.175781 53.550781 19.648438 53.925781 19.050781 54.074219 C 18.300781 54.148438 16.425781 53.625 15.898438 52.949219 C 15.449219 52.351562 15.449219 51.148438 15.75 50.476562 C 16.050781 49.800781 16.949219 49.050781 17.699219 48.976562 C 18.523438 48.898438 20.324219 49.648438 20.398438 50.25 C 20.550781 50.699219 19.050781 51.226562 18.898438 51.898438 C 18.75 52.574219 19.050781 53.324219 19.574219 54.148438 C 20.699219 55.574219 24.976562 58.125 26.773438 58.800781 C 27.675781 59.175781 27.976562 59.175781 29.101562 59.175781 C 31.648438 59.175781 38.101562 58.800781 42.226562 57.523438 C 46.351562 56.175781 51.824219 52.726562 53.925781 51.300781 C 54.824219 50.699219 55.273438 50.625 55.648438 49.875 C 56.476562 48.300781 56.625 43.949219 56.398438 41.773438 C 56.25 40.351562 55.875 39.300781 55.351562 38.25 C 54.75 37.125 53.023438 36.148438 53.023438 35.25 C 53.023438 34.5 54 33.449219 54.601562 33.148438 C 55.199219 32.925781 56.773438 33.523438 56.773438 33.523438 " clip-rule="nonzero"/>
    </clipPath>
    <clipPath id="1832c035cb">
      <path d="M 12.714844 2.835938 L 33.746094 2.835938 L 33.746094 13.84375 L 12.714844 13.84375 Z M 12.714844 2.835938 " clip-rule="nonzero"/>
    </clipPath>
    <clipPath id="69d3aa7d0b">
      <path d="M 30.300781 9.226562 C 25.125 7.648438 22.949219 7.949219 21.226562 8.476562 C 19.574219 9.074219 17.175781 10.125 16.648438 11.175781 C 16.273438 11.851562 17.023438 12.824219 16.726562 13.273438 C 16.5 13.648438 15.675781 13.875 15.074219 13.800781 C 14.476562 13.800781 13.425781 13.273438 13.125 12.75 C 12.75 12.074219 12.675781 10.5 13.199219 9.898438 C 13.800781 9.300781 16.199219 9.226562 16.949219 9.675781 C 17.398438 9.898438 17.550781 10.574219 17.625 11.101562 C 17.625 11.699219 17.324219 12.824219 16.800781 13.199219 C 16.125 13.648438 14.476562 13.800781 13.800781 13.425781 C 13.199219 13.125 12.675781 12.074219 12.75 11.398438 C 12.75 10.648438 13.726562 9.300781 14.476562 9 C 15.074219 8.773438 16.199219 9.074219 16.726562 9.449219 C 17.25 9.898438 17.699219 10.949219 17.625 11.625 C 17.550781 12.300781 16.949219 13.199219 16.351562 13.5 C 15.75 13.875 14.023438 13.574219 14.023438 13.574219 C 14.023438 13.5 16.726562 13.199219 16.726562 13.273438 C 16.726562 13.273438 15.148438 13.875 14.550781 13.726562 C 13.875 13.574219 13.050781 12.976562 12.824219 12.148438 C 12.523438 11.023438 12.976562 8.398438 14.175781 6.976562 C 15.75 5.101562 20.25 3.449219 22.949219 3 C 25.050781 2.625 27.148438 3 28.949219 3.523438 C 30.449219 3.898438 32.101562 4.648438 32.851562 5.398438 C 33.375 5.851562 33.601562 6.300781 33.675781 6.824219 C 33.75 7.351562 33.601562 8.023438 33.300781 8.476562 C 33 8.851562 32.476562 9.300781 31.949219 9.449219 C 31.5 9.523438 30.300781 9.226562 30.300781 9.226562 " clip-rule="nonzero"/>
    </clipPath>
    <clipPath id="9df0a1c8af">
      <path d="M 16.558594 9.433594 L 34.1875 9.433594 L 34.1875 17.828125 L 16.558594 17.828125 Z M 16.558594 9.433594 " clip-rule="nonzero"/>
    </clipPath>
    <clipPath id="682f421ba5">
      <path d="M 31.800781 14.175781 C 25.5 14.101562 20.324219 17.925781 18.449219 17.699219 C 17.625 17.625 17.101562 17.101562 16.800781 16.5 C 16.574219 15.976562 16.574219 15 16.875 14.476562 C 17.175781 13.949219 18 13.425781 18.601562 13.425781 C 19.273438 13.425781 20.550781 14.175781 20.851562 14.851562 C 21.074219 15.375 20.925781 16.351562 20.550781 16.875 C 20.175781 17.324219 19.273438 17.851562 18.675781 17.773438 C 18 17.699219 16.875 16.726562 16.648438 16.125 C 16.425781 15.523438 16.648438 14.773438 17.175781 14.101562 C 18.226562 12.75 22.949219 10.800781 25.125 10.050781 C 26.398438 9.675781 27.148438 9.523438 28.351562 9.523438 C 29.773438 9.449219 32.25 9.375 33.148438 10.125 C 33.824219 10.648438 34.351562 11.773438 34.125 12.449219 C 33.976562 13.125 31.800781 14.175781 31.800781 14.175781 " clip-rule="nonzero"/>
    </clipPath>
    <clipPath id="d78e3281a6">
      <path d="M 17.1875 12.636719 L 30.636719 12.636719 L 30.636719 19.5625 L 17.1875 19.5625 Z M 17.1875 12.636719 " clip-rule="nonzero"/>
    </clipPath>
    <clipPath id="32806f3243">
      <path d="M 28.574219 17.175781 C 20.625 18 20.398438 19.273438 19.726562 19.5 C 19.125 19.648438 18.226562 19.199219 17.851562 18.824219 C 17.476562 18.523438 17.25 18.074219 17.25 17.625 C 17.25 17.101562 17.476562 16.125 18 15.75 C 18.523438 15.375 19.949219 15.226562 20.550781 15.601562 C 21.074219 15.898438 21.523438 16.726562 21.523438 17.324219 C 21.449219 18 20.625 19.199219 19.949219 19.425781 C 19.425781 19.648438 18.449219 19.425781 18 19.050781 C 17.550781 18.601562 17.101562 17.773438 17.25 17.175781 C 17.476562 16.125 19.726562 14.476562 21.375 13.726562 C 23.25 12.898438 26.625 12.523438 28.199219 12.75 C 29.023438 12.898438 29.699219 13.125 30.074219 13.574219 C 30.449219 13.949219 30.675781 14.550781 30.601562 15.074219 C 30.449219 15.75 28.574219 17.175781 28.574219 17.175781 " clip-rule="nonzero"/>
    </clipPath>
    <clipPath id="84a0b6b834">
      <path d="M 22.53125 13.90625 L 33 13.90625 L 33 20.820312 L 22.53125 20.820312 Z M 22.53125 13.90625 " clip-rule="nonzero"/>
    </clipPath>
    <clipPath id="153a0fb98b">
      <path d="M 31.050781 18.375 C 26.175781 19.125 25.875 20.550781 25.199219 20.699219 C 24.601562 20.925781 23.699219 20.550781 23.25 20.175781 C 22.875 19.875 22.574219 19.425781 22.574219 18.898438 C 22.5 18.375 22.800781 17.398438 23.25 16.949219 C 23.699219 16.5 24.675781 16.273438 25.273438 16.425781 C 25.875 16.574219 26.625 17.175781 26.851562 17.773438 C 27 18.449219 26.625 19.875 26.101562 20.324219 C 25.648438 20.773438 24.601562 20.925781 24.074219 20.699219 C 23.398438 20.398438 22.425781 19.199219 22.574219 18.449219 C 22.726562 17.175781 25.875 15 27.375 14.324219 C 28.5 13.875 29.625 13.875 30.523438 13.949219 C 31.125 13.949219 31.648438 14.023438 32.023438 14.324219 C 32.476562 14.625 32.851562 15.148438 32.925781 15.675781 C 33.074219 16.273438 32.773438 17.25 32.398438 17.699219 C 32.101562 18.074219 31.050781 18.375 31.050781 18.375 " clip-rule="nonzero"/>
    </clipPath>
    <clipPath id="918625ddf1">
      <path d="M 28.011719 14.4375 L 34.265625 14.4375 L 34.265625 22.695312 L 28.011719 22.695312 Z M 28.011719 14.4375 " clip-rule="nonzero"/>
    </clipPath>
    <clipPath id="4479424f44">
      <path d="M 33.226562 18 C 31.949219 20.476562 33.675781 21.601562 33.523438 22.050781 C 33.300781 22.5 31.574219 22.648438 30.976562 22.425781 C 30.375 22.125 29.851562 21.300781 29.699219 20.699219 C 29.625 20.175781 29.699219 19.5 30.074219 19.125 C 30.601562 18.601562 32.25 18.074219 32.925781 18.300781 C 33.523438 18.523438 34.050781 19.425781 34.199219 20.023438 C 34.351562 20.476562 34.199219 21 33.976562 21.449219 C 33.675781 21.976562 32.773438 22.5 32.175781 22.648438 C 31.726562 22.726562 31.199219 22.574219 30.75 22.351562 C 30.300781 21.976562 29.699219 21.074219 29.699219 20.476562 C 29.625 19.875 30.074219 18.898438 30.601562 18.523438 C 31.125 18.148438 32.101562 18 32.699219 18.226562 C 33.300781 18.449219 34.050781 19.125 34.125 19.800781 C 34.273438 20.476562 33.675781 21.898438 33.148438 22.351562 C 32.773438 22.648438 31.726562 22.726562 31.726562 22.648438 C 31.648438 22.574219 33.824219 21.601562 33.824219 21.601562 C 33.898438 21.675781 32.625 22.574219 32.023438 22.648438 C 31.5 22.648438 30.898438 22.425781 30.449219 22.125 C 30.074219 21.75 29.773438 21.148438 29.699219 20.699219 C 29.625 20.175781 30.226562 19.574219 30.074219 19.125 C 29.851562 18.601562 28.125 18.449219 28.050781 17.925781 C 27.898438 17.324219 28.875 16.050781 29.476562 15.523438 C 30 15 30.75 14.550781 31.351562 14.476562 C 31.875 14.476562 32.476562 14.699219 32.851562 15.074219 C 33.226562 15.375 33.523438 15.976562 33.601562 16.425781 C 33.675781 16.949219 33.226562 18 33.226562 18 " clip-rule="nonzero"/>
    </clipPath>
    <clipPath id="b7c940a920">
      <path d="M 13.519531 7.382812 L 37.1875 7.382812 L 37.1875 23.742188 L 13.519531 23.742188 Z M 13.519531 7.382812 " clip-rule="nonzero"/>
    </clipPath>
    <clipPath id="ce21e42f09">
      <path d="M 37.050781 18.300781 C 33.898438 23.699219 33.300781 23.699219 32.773438 23.625 C 32.324219 23.550781 31.726562 23.25 31.425781 22.875 C 31.050781 22.351562 30.898438 21.601562 30.976562 20.773438 C 31.125 19.425781 32.101562 16.574219 33.148438 15.824219 C 33.898438 15.300781 35.101562 15.148438 35.699219 15.449219 C 36.300781 15.675781 36.824219 16.648438 36.976562 17.175781 C 37.050781 17.550781 37.125 18 36.824219 18.300781 C 36.300781 18.898438 33.976562 19.351562 32.550781 19.273438 C 31.125 19.199219 29.324219 18.523438 28.273438 17.625 C 27.375 16.949219 26.699219 15.898438 26.398438 14.773438 C 26.101562 13.425781 26.25 11.324219 26.625 10.199219 C 26.925781 9.375 27.375 8.699219 27.898438 8.398438 C 28.351562 8.175781 29.023438 8.101562 29.476562 8.25 C 30 8.324219 30.523438 8.699219 30.824219 9.148438 C 31.125 9.601562 31.351562 10.199219 31.199219 10.726562 C 30.976562 11.476562 29.925781 12.226562 28.875 12.898438 C 27.226562 13.875 23.476562 15.601562 21.675781 15.449219 C 20.550781 15.375 19.5 14.699219 18.976562 13.949219 C 18.375 12.976562 18.449219 11.175781 18.675781 10.125 C 18.824219 9.226562 19.199219 8.25 19.800781 7.875 C 20.398438 7.5 21.824219 7.425781 22.425781 7.875 C 23.023438 8.25 23.625 9.523438 23.398438 10.273438 C 22.875 11.699219 17.851562 14.25 16.050781 14.25 C 15.074219 14.25 13.949219 13.574219 13.648438 12.898438 C 13.351562 12.226562 13.875 10.648438 14.324219 10.199219 C 14.625 9.824219 15.226562 9.601562 15.675781 9.675781 C 16.273438 9.675781 17.25 10.125 17.625 10.648438 C 18 11.175781 18.148438 12.148438 17.925781 12.75 C 17.699219 13.351562 16.949219 14.023438 16.351562 14.25 C 15.675781 14.398438 14.699219 14.175781 14.25 13.726562 C 13.726562 13.125 13.273438 11.773438 13.726562 10.949219 C 14.398438 9.523438 20.398438 7.125 20.550781 7.425781 C 20.699219 7.574219 18.898438 9.300781 18.898438 9.226562 C 18.824219 9.226562 19.351562 8.175781 19.800781 7.875 C 20.324219 7.574219 21.300781 7.351562 21.898438 7.574219 C 22.5 7.800781 23.25 8.625 23.324219 9.148438 C 23.476562 9.675781 22.574219 10.425781 22.800781 10.726562 C 23.101562 11.101562 25.875 10.726562 26.625 10.199219 C 27.148438 9.824219 27 9.074219 27.375 8.699219 C 27.898438 8.324219 28.875 8.101562 29.476562 8.25 C 30.074219 8.398438 30.824219 8.925781 31.125 9.675781 C 31.5 10.648438 30.375 12.675781 30.675781 13.949219 C 30.898438 15 31.800781 16.574219 32.550781 16.726562 C 33.148438 16.800781 33.976562 15.300781 34.648438 15.226562 C 35.175781 15.148438 35.773438 15.449219 36.226562 15.75 C 36.601562 16.125 36.898438 16.574219 36.976562 17.175781 C 37.050781 18.449219 35.699219 22.050781 34.800781 22.949219 C 34.351562 23.476562 33.898438 23.625 33.375 23.699219 C 32.773438 23.699219 31.800781 23.324219 31.425781 22.875 C 30.976562 22.351562 30.824219 21.601562 30.976562 20.773438 C 31.125 19.425781 32.398438 16.351562 33.523438 15.601562 C 34.273438 15.074219 35.476562 15.148438 36.074219 15.375 C 36.601562 15.601562 36.976562 16.199219 37.125 16.648438 C 37.273438 17.101562 37.050781 18.300781 37.050781 18.300781 " clip-rule="nonzero"/>
    </clipPath>
    <clipPath id="836e0388bc">
      <path d="M 22.621094 30.671875 L 30.027344 30.671875 L 30.027344 41.203125 L 22.621094 41.203125 Z M 22.621094 30.671875 " clip-rule="nonzero"/>
    </clipPath>
    <clipPath id="6e98ba389b">
      <path d="M 29.625 34.273438 C 25.351562 41.25 24.449219 41.175781 23.925781 41.023438 C 23.476562 40.875 23.023438 40.574219 22.800781 40.125 C 22.574219 39.449219 22.648438 37.949219 23.175781 37.425781 C 23.699219 36.898438 25.199219 36.75 25.875 37.050781 C 26.398438 37.273438 27 38.175781 27 38.773438 C 27 39.449219 26.175781 40.726562 25.574219 41.023438 C 24.976562 41.324219 23.925781 41.175781 23.476562 40.800781 C 22.949219 40.351562 22.574219 39.226562 22.648438 38.25 C 22.800781 36.523438 24.976562 32.773438 25.949219 31.648438 C 26.398438 31.125 26.773438 30.898438 27.300781 30.75 C 27.75 30.675781 28.425781 30.75 28.875 30.976562 C 29.324219 31.351562 29.925781 32.175781 30 32.699219 C 30.074219 33.226562 29.625 34.273438 29.625 34.273438 " clip-rule="nonzero"/>
    </clipPath>
    <clipPath id="ead7f1d9c8">
      <path d="M 25.492188 33.097656 L 31.132812 33.097656 L 31.132812 43.5625 L 25.492188 43.5625 Z M 25.492188 33.097656 " clip-rule="nonzero"/>
    </clipPath>
    <clipPath id="3478cee8b9">
      <path d="M 31.125 35.773438 C 28.5 43.574219 27.148438 43.574219 26.625 43.199219 C 26.023438 42.824219 25.574219 41.398438 25.726562 40.726562 C 25.875 40.125 26.550781 39.449219 27.148438 39.300781 C 27.824219 39.148438 29.25 39.675781 29.625 40.199219 C 29.925781 40.800781 29.773438 42.300781 29.324219 42.824219 C 29.023438 43.273438 28.050781 43.648438 27.449219 43.5 C 26.773438 43.351562 25.949219 42.523438 25.648438 41.625 C 25.199219 40.199219 26.175781 36.375 26.773438 34.949219 C 27.148438 34.125 27.601562 33.601562 28.125 33.375 C 28.574219 33.074219 29.175781 33 29.625 33.300781 C 30.300781 33.601562 31.125 35.773438 31.125 35.773438 " clip-rule="nonzero"/>
    </clipPath>
    <clipPath id="5f7337d78c">
      <path d="M 28.632812 32.5625 L 35.191406 32.5625 L 35.191406 44.746094 L 28.632812 44.746094 Z M 28.632812 32.5625 " clip-rule="nonzero"/>
    </clipPath>
    <clipPath id="dafb75daee">
      <path d="M 35.175781 35.699219 C 32.925781 40.726562 33.226562 42.523438 32.699219 43.425781 C 32.324219 44.023438 31.648438 44.550781 31.125 44.625 C 30.675781 44.773438 30.226562 44.699219 29.773438 44.476562 C 29.324219 44.175781 28.726562 43.425781 28.648438 42.824219 C 28.574219 42.226562 28.875 41.324219 29.398438 40.949219 C 29.925781 40.574219 31.351562 40.5 31.949219 40.800781 C 32.476562 41.101562 32.925781 41.925781 32.851562 42.523438 C 32.851562 43.199219 32.023438 44.324219 31.351562 44.625 C 30.824219 44.851562 29.851562 44.550781 29.398438 44.175781 C 29.023438 43.949219 28.800781 43.574219 28.726562 43.050781 C 28.5 41.925781 29.101562 39.300781 29.550781 37.726562 C 29.925781 36.300781 30.601562 34.726562 31.125 33.824219 C 31.5 33.300781 31.800781 32.925781 32.25 32.773438 C 32.773438 32.550781 33.824219 32.476562 34.351562 32.851562 C 34.875 33.375 35.175781 35.699219 35.175781 35.699219 " clip-rule="nonzero"/>
    </clipPath>
    <clipPath id="95ba5e8025">
      <path d="M 32.144531 31.296875 L 38.878906 31.296875 L 38.878906 42.386719 L 32.144531 42.386719 Z M 32.144531 31.296875 " clip-rule="nonzero"/>
    </clipPath>
    <clipPath id="47c31fe208">
      <path d="M 38.773438 34.574219 C 35.324219 42.226562 34.125 42.449219 33.449219 42.226562 C 32.851562 42 32.25 41.175781 32.175781 40.574219 C 32.101562 39.824219 32.773438 38.476562 33.375 38.175781 C 34.050781 37.875 35.550781 38.175781 36.074219 38.699219 C 36.523438 39.148438 36.75 40.125 36.523438 40.726562 C 36.300781 41.398438 35.101562 42.375 34.351562 42.375 C 33.675781 42.375 32.476562 41.699219 32.25 40.800781 C 31.726562 39.148438 33.824219 33.976562 34.726562 32.550781 C 35.101562 31.949219 35.476562 31.648438 35.925781 31.5 C 36.375 31.273438 37.050781 31.273438 37.5 31.425781 C 38.023438 31.648438 38.550781 32.023438 38.773438 32.476562 C 39 33 38.773438 34.574219 38.773438 34.574219 " clip-rule="nonzero"/>
    </clipPath>
    <clipPath id="c0f4bca9d2">
      <path d="M 35.132812 31.382812 L 40.691406 31.382812 L 40.691406 41.066406 L 35.132812 41.066406 Z M 35.132812 31.382812 " clip-rule="nonzero"/>
    </clipPath>
    <clipPath id="134bcfacd9">
      <path d="M 40.648438 34.351562 C 39.226562 38.773438 39.976562 39.226562 39.976562 39.675781 C 39.976562 40.050781 39.75 40.351562 39.375 40.574219 C 38.851562 40.875 37.125 41.023438 36.601562 40.574219 C 36.074219 40.199219 35.773438 38.851562 35.925781 38.25 C 36.148438 37.648438 37.125 36.898438 37.726562 36.824219 C 38.398438 36.824219 39.675781 37.574219 39.976562 38.175781 C 40.199219 38.699219 40.125 39.675781 39.75 40.199219 C 39.300781 40.726562 37.949219 41.175781 37.273438 41.023438 C 36.675781 40.875 36 40.125 35.925781 39.523438 C 35.773438 38.851562 36.300781 37.5 36.898438 37.125 C 37.351562 36.824219 38.324219 36.75 38.851562 37.050781 C 39.375 37.273438 40.050781 38.023438 40.050781 38.625 C 40.125 39.300781 38.773438 40.875 38.851562 40.875 C 38.925781 40.949219 39.976562 39.75 39.976562 39.675781 C 39.976562 39.675781 39.074219 40.949219 38.476562 41.023438 C 37.875 41.175781 36.75 40.800781 36.226562 40.199219 C 35.550781 39.523438 35.175781 37.875 35.175781 36.675781 C 35.25 35.398438 35.699219 33.675781 36.449219 32.773438 C 37.125 32.023438 38.324219 31.351562 39.074219 31.425781 C 39.601562 31.425781 40.125 31.875 40.351562 32.25 C 40.726562 32.773438 40.648438 34.351562 40.648438 34.351562 " clip-rule="nonzero"/>
    </clipPath>
    <clipPath id="01b69d147a">
      <path d="M 38.140625 27.789062 L 44.960938 27.789062 L 44.960938 39.394531 L 38.140625 39.394531 Z M 38.140625 27.789062 " clip-rule="nonzero"/>
    </clipPath>
    <clipPath id="559224deb0">
      <path d="M 44.925781 30.375 C 41.175781 39.300781 39.976562 39.449219 39.375 39.074219 C 38.699219 38.773438 38.175781 37.425781 38.25 36.675781 C 38.324219 36.074219 39.074219 35.398438 39.523438 35.175781 C 39.976562 34.949219 40.5 34.949219 40.949219 35.023438 C 41.398438 35.175781 41.851562 35.476562 42.074219 35.851562 C 42.375 36.300781 42.675781 37.273438 42.449219 37.875 C 42.148438 38.476562 40.949219 39.375 40.273438 39.375 C 39.523438 39.300781 38.476562 38.550781 38.25 37.648438 C 37.726562 35.851562 39.976562 29.324219 41.398438 28.199219 C 42.148438 27.675781 43.351562 27.75 43.949219 28.050781 C 44.550781 28.425781 44.925781 30.375 44.925781 30.375 " clip-rule="nonzero"/>
    </clipPath>
    <clipPath id="a03a19fedd">
      <path d="M 18.917969 40.894531 L 27.863281 40.894531 L 27.863281 50.761719 L 18.917969 50.761719 Z M 18.917969 40.894531 " clip-rule="nonzero"/>
    </clipPath>
    <clipPath id="af4b0ca213">
      <path d="M 27.523438 44.773438 C 21.449219 50.773438 20.25 50.699219 19.726562 50.175781 C 19.199219 49.726562 18.898438 48.226562 19.199219 47.625 C 19.425781 47.023438 20.25 46.425781 20.851562 46.425781 C 21.523438 46.351562 22.875 47.101562 23.175781 47.699219 C 23.476562 48.226562 23.398438 49.273438 23.023438 49.726562 C 22.574219 50.324219 21.226562 50.851562 20.550781 50.699219 C 19.875 50.476562 18.976562 49.425781 18.976562 48.523438 C 18.976562 46.875 22.875 42.601562 24.375 41.625 C 25.125 41.101562 25.800781 40.875 26.398438 40.949219 C 26.851562 41.023438 27.449219 41.324219 27.75 41.773438 C 28.050781 42.449219 27.523438 44.773438 27.523438 44.773438 " clip-rule="nonzero"/>
    </clipPath>
    <clipPath id="689c4c5099">
      <path d="M 21 40.378906 L 26.945312 40.378906 L 26.945312 54.308594 L 21 54.308594 Z M 21 40.378906 " clip-rule="nonzero"/>
    </clipPath>
    <clipPath id="d287aac627">
      <path d="M 26.925781 43.125 C 25.199219 50.175781 26.101562 50.699219 26.25 51.449219 C 26.324219 52.125 26.324219 53.023438 25.949219 53.476562 C 25.425781 54 24 54.449219 23.398438 54.226562 C 22.726562 53.925781 21.976562 52.648438 21.976562 51.976562 C 21.976562 51.375 22.574219 50.550781 23.101562 50.25 C 23.625 49.949219 24.601562 49.949219 25.199219 50.25 C 25.726562 50.476562 26.25 51.300781 26.324219 51.898438 C 26.398438 52.5 26.101562 53.476562 25.574219 53.851562 C 25.050781 54.226562 23.625 54.449219 22.949219 54 C 21.898438 53.25 21 50.023438 21 47.925781 C 21.074219 45.675781 22.273438 41.625 23.476562 40.726562 C 24.226562 40.199219 25.5 40.351562 26.023438 40.726562 C 26.625 41.101562 26.925781 43.125 26.925781 43.125 " clip-rule="nonzero"/>
    </clipPath>
    <clipPath id="88d9a8589c">
      <path d="M 25.300781 43.933594 L 30.605469 43.933594 L 30.605469 55.609375 L 25.300781 55.609375 Z M 25.300781 43.933594 " clip-rule="nonzero"/>
    </clipPath>
    <clipPath id="5aa1cdd4cf">
      <path d="M 30.601562 46.648438 C 28.726562 53.398438 29.773438 54.226562 29.550781 54.675781 C 29.25 55.199219 27.300781 55.648438 26.699219 55.273438 C 26.023438 54.898438 25.351562 53.101562 25.726562 52.5 C 26.101562 51.898438 28.875 51.523438 29.550781 51.976562 C 30 52.351562 30.148438 53.476562 29.851562 54.074219 C 29.625 54.675781 28.351562 55.574219 27.675781 55.574219 C 27.074219 55.574219 26.175781 55.050781 25.875 54.523438 C 25.574219 54 25.5 53.023438 25.726562 52.425781 C 26.023438 51.898438 26.773438 51.226562 27.375 51.148438 C 28.050781 51.148438 29.476562 51.75 29.773438 52.425781 C 30.074219 53.023438 29.699219 54.523438 29.25 55.050781 C 28.800781 55.5 27.226562 55.574219 27.226562 55.5 C 27.148438 55.425781 29.773438 54.148438 29.851562 54.226562 C 29.851562 54.300781 28.351562 55.574219 27.675781 55.574219 C 27 55.574219 26.101562 54.976562 25.648438 54.074219 C 24.898438 52.5 25.648438 47.25 26.175781 45.675781 C 26.398438 45 26.625 44.625 27.074219 44.324219 C 27.523438 44.023438 28.574219 43.875 29.101562 44.023438 C 29.625 44.175781 30.074219 44.625 30.300781 45.074219 C 30.601562 45.523438 30.601562 46.648438 30.601562 46.648438 " clip-rule="nonzero"/>
    </clipPath>
    <clipPath id="a7b8606969">
      <path d="M 26.726562 39.578125 L 56 39.578125 L 56 57.664062 L 26.726562 57.664062 Z M 26.726562 39.578125 " clip-rule="nonzero"/>
    </clipPath>
    <clipPath id="8a1becadb3">
      <path d="M 32.398438 49.726562 C 29.773438 55.949219 28.800781 56.023438 28.199219 55.726562 C 27.601562 55.425781 26.699219 54.449219 26.773438 53.625 C 26.851562 52.273438 29.851562 49.425781 31.273438 48.824219 C 32.175781 48.375 33.300781 48.449219 33.898438 48.75 C 34.425781 48.976562 34.648438 49.425781 34.875 50.101562 C 35.25 51.226562 35.476562 54.148438 34.949219 55.5 C 34.648438 56.398438 33.824219 57.226562 33.148438 57.523438 C 32.625 57.675781 31.949219 57.601562 31.5 57.300781 C 30.976562 57 30.226562 56.175781 30.226562 55.5 C 30.300781 54.601562 31.726562 53.175781 32.851562 52.351562 C 34.125 51.449219 36.375 50.324219 37.648438 50.625 C 38.699219 50.773438 40.273438 52.425781 40.125 52.875 C 40.050781 53.25 37.5 53.625 37.273438 53.25 C 36.976562 52.800781 39 50.175781 39.898438 49.425781 C 40.425781 48.976562 40.875 48.675781 41.476562 48.675781 C 42.226562 48.75 43.574219 49.425781 43.875 50.101562 C 44.175781 50.773438 43.425781 52.875 43.425781 52.875 C 43.425781 52.875 43.425781 51.074219 43.949219 49.949219 C 45.148438 47.476562 49.949219 40.875 52.273438 39.898438 C 53.324219 39.449219 54.601562 39.675781 55.199219 40.199219 C 55.726562 40.574219 56.101562 41.625 55.949219 42.300781 C 55.875 42.976562 55.199219 43.875 54.601562 44.175781 C 54 44.476562 52.949219 44.398438 52.351562 44.101562 C 51.75 43.726562 51.226562 42.824219 51.148438 42.148438 C 51.074219 41.476562 51.523438 40.425781 52.050781 40.050781 C 52.726562 39.675781 54.375 39.675781 54.976562 39.976562 C 55.5 40.273438 55.800781 40.726562 55.875 41.25 C 56.023438 41.851562 55.875 42.675781 55.425781 43.5 C 54.75 45 52.875 47.324219 51.148438 49.050781 C 49.125 51 45.75 54.148438 43.800781 54.523438 C 42.523438 54.675781 41.25 54.300781 40.648438 53.550781 C 39.898438 52.726562 39.375 50.175781 39.898438 49.425781 C 40.351562 48.824219 41.925781 48.601562 42.675781 48.898438 C 43.351562 49.199219 44.101562 50.398438 44.101562 51.226562 C 44.101562 52.273438 42.824219 53.699219 41.925781 54.675781 C 41.175781 55.574219 40.050781 56.925781 39.300781 56.851562 C 38.699219 56.773438 38.398438 55.125 37.726562 54.824219 C 36.976562 54.601562 35.699219 55.050781 34.949219 55.5 C 34.199219 55.949219 33.898438 57.300781 33.148438 57.523438 C 32.476562 57.675781 31.125 57.300781 30.675781 56.550781 C 29.773438 55.273438 30 50.398438 30.824219 49.199219 C 31.273438 48.523438 32.175781 48.300781 32.851562 48.375 C 33.523438 48.449219 34.425781 48.976562 34.648438 49.574219 C 34.949219 50.25 34.875 51.375 34.425781 52.199219 C 33.75 53.476562 31.199219 55.5 29.851562 55.726562 C 28.949219 55.949219 27.824219 55.648438 27.300781 55.125 C 26.851562 54.675781 26.773438 53.925781 26.851562 53.023438 C 26.851562 51.675781 27.449219 48.523438 28.425781 47.625 C 29.101562 47.023438 30.300781 46.875 30.976562 47.023438 C 31.5 47.175781 31.949219 47.625 32.175781 48.074219 C 32.476562 48.523438 32.398438 49.726562 32.398438 49.726562 " clip-rule="nonzero"/>
    </clipPath>
    <clipPath id="45b4cbc436">
      <path d="M 44.636719 34.886719 L 55.304688 34.886719 L 55.304688 49.769531 L 44.636719 49.769531 Z M 44.636719 34.886719 " clip-rule="nonzero"/>
    </clipPath>
    <clipPath id="10ec11c76b">
      <path d="M 54 40.425781 C 51.824219 49.199219 51 49.800781 50.324219 49.726562 C 49.648438 49.726562 48.75 49.050781 48.300781 48.300781 C 47.625 46.949219 47.699219 44.101562 48.148438 42 C 48.601562 39.824219 50.25 36.375 51.300781 35.398438 C 51.824219 35.023438 52.351562 34.875 52.875 34.949219 C 53.476562 34.949219 54.300781 35.324219 54.675781 36 C 55.351562 37.050781 55.425781 40.050781 55.050781 41.550781 C 54.75 42.675781 54 43.800781 53.101562 44.25 C 52.199219 44.773438 50.398438 44.925781 49.5 44.476562 C 48.675781 44.101562 48.601562 42.75 47.851562 42.300781 C 47.101562 41.851562 45.601562 42.148438 45.148438 41.625 C 44.699219 41.023438 44.625 39.375 45.074219 38.773438 C 45.523438 38.175781 47.101562 37.726562 47.773438 38.023438 C 48.449219 38.25 49.273438 39.675781 49.273438 40.351562 C 49.273438 41.023438 48.675781 41.925781 48.074219 42.226562 C 47.398438 42.523438 45.898438 42.300781 45.300781 41.773438 C 44.851562 41.398438 44.550781 40.351562 44.699219 39.675781 C 44.851562 39.074219 45.375 38.324219 46.050781 38.023438 C 47.101562 37.648438 49.949219 37.875 50.851562 38.625 C 51.601562 39.226562 51.898438 41.398438 51.824219 41.398438 C 51.75 41.476562 50.773438 40.199219 50.625 39.375 C 50.398438 38.398438 50.476562 36.523438 50.925781 35.851562 C 51.375 35.25 52.199219 34.875 52.875 34.949219 C 53.476562 34.949219 54.300781 35.476562 54.675781 36 C 54.976562 36.375 55.050781 36.824219 54.976562 37.574219 C 54.824219 39.074219 52.574219 42.449219 52.199219 44.476562 C 51.976562 45.976562 52.875 47.476562 52.425781 48.375 C 52.050781 49.125 51 49.800781 50.324219 49.726562 C 49.574219 49.648438 48.523438 48.75 48.148438 47.773438 C 47.625 45.976562 48.976562 40.875 49.648438 39.375 C 49.949219 38.699219 50.324219 38.398438 50.699219 38.175781 C 51.148438 37.949219 51.824219 37.875 52.273438 38.023438 C 52.800781 38.101562 53.324219 38.476562 53.625 38.925781 C 53.925781 39.300781 54 40.425781 54 40.425781 " clip-rule="nonzero"/>
    </clipPath>
    <clipPath id="45af6f52b9">
      <path d="M 26.339844 28.027344 L 30.59375 28.027344 L 30.59375 42.917969 L 26.339844 42.917969 Z M 26.339844 28.027344 " clip-rule="nonzero"/>
    </clipPath>
    <clipPath id="2b8cce346a">
      <path d="M 27.898438 32.101562 C 29.550781 39.523438 29.175781 39.75 28.949219 39.75 C 28.726562 39.675781 28.425781 39.449219 28.199219 39.074219 C 27.523438 37.726562 27.074219 30.148438 27.601562 28.726562 C 27.75 28.273438 28.050781 28.050781 28.273438 28.050781 C 28.574219 27.976562 28.875 28.199219 29.101562 28.648438 C 29.925781 30.148438 30.675781 40.574219 29.699219 41.925781 C 29.398438 42.300781 28.726562 42.449219 28.425781 42.226562 C 27.976562 42 27.976562 40.949219 27.898438 39.898438 C 27.601562 37.800781 26.851562 31.5 27.601562 30.300781 C 27.898438 29.851562 28.574219 29.550781 28.949219 29.773438 C 30 30.449219 31.125 40.949219 30.300781 42.375 C 30 42.75 29.476562 42.898438 29.101562 42.824219 C 28.726562 42.675781 28.574219 41.925781 28.351562 41.101562 C 27.898438 39.375 27.074219 34.351562 27.601562 33.148438 C 27.898438 32.699219 28.425781 32.324219 28.726562 32.476562 C 29.550781 32.851562 30.148438 40.648438 29.625 40.949219 C 29.398438 41.101562 28.875 40.199219 28.5 40.125 C 28.125 40.050781 27.300781 40.800781 27.226562 40.726562 C 27.148438 40.574219 27.824219 39.449219 27.976562 39.449219 C 28.125 39.449219 28.351562 40.648438 28.199219 40.800781 C 28.050781 40.949219 27.074219 40.574219 27 40.351562 C 27 40.125 27.675781 39.375 27.898438 39.449219 C 28.125 39.449219 28.5 40.5 28.351562 40.648438 C 28.199219 40.800781 27.074219 40.351562 27.074219 40.351562 C 27 40.425781 27.898438 41.175781 28.125 41.023438 C 28.726562 40.648438 27 34.050781 27.601562 33 C 27.898438 32.550781 28.425781 32.324219 28.726562 32.476562 C 29.699219 33 30.824219 41.101562 30.300781 42.375 C 30.074219 42.75 29.699219 42.976562 29.476562 42.898438 C 29.25 42.898438 29.023438 42.75 28.800781 42.375 C 28.050781 41.023438 27.148438 31.875 27.601562 30.300781 C 27.75 29.851562 28.050781 29.550781 28.273438 29.550781 C 28.5 29.476562 28.875 29.773438 29.101562 30.300781 C 29.851562 31.800781 30.449219 40.273438 29.699219 41.699219 C 29.476562 42.226562 29.023438 42.601562 28.726562 42.449219 C 27.75 42 26.625 30.148438 27.601562 28.726562 C 27.898438 28.273438 28.648438 28.125 28.949219 28.273438 C 29.398438 28.574219 29.550781 29.851562 29.699219 30.976562 C 29.925781 33 30.074219 39.148438 29.324219 39.601562 C 29.023438 39.824219 28.574219 39.601562 28.273438 39.226562 C 27.449219 38.324219 26.175781 33.523438 26.398438 32.398438 C 26.476562 32.023438 26.773438 31.648438 27 31.648438 C 27.226562 31.574219 27.898438 32.101562 27.898438 32.101562 " clip-rule="nonzero"/>
    </clipPath>
  </defs>
  <g clip-path="url(#f7497f3b58)">
    <g clip-path="url(#614a2ab3c2)">
      <path fill="#1e1e1e" d="M 8.101562 3.523438 L 45.195312 3.523438 L 45.195312 32.925781 L 8.101562 32.925781 Z M 8.101562 3.523438 " fill-opacity="1" fill-rule="nonzero"/>
    </g>
  </g>
  <g clip-path="url(#d1a4f0f141)">
    <g clip-path="url(#4fa1c48a7b)">
      <path fill="#1e1e1e" d="M 29.625 34.273438 L 48.453125 34.273438 L 48.453125 49.726562 L 29.625 49.726562 Z M 29.625 34.273438 " fill-opacity="1" fill-rule="nonzero"/>
    </g>
  </g>
  <g clip-path="url(#2ecd52e7fe)">
    <g clip-path="url(#ddb7b88191)">
      <path fill="#1e1e1e" d="M 11.398438 30.148438 L 64.4375 30.148438 L 64.4375 67.351562 L 11.398438 67.351562 Z M 11.398438 30.148438 " fill-opacity="1" fill-rule="nonzero"/>
    </g>
  </g>
  <g clip-path="url(#1832c035cb)">
    <g clip-path="url(#69d3aa7d0b)">
      <path fill="#e74348" d="M 9.75 0 L 36.777344 0 L 36.777344 16.875 L 9.75 16.875 Z M 9.75 0 " fill-opacity="1" fill-rule="nonzero"/>
    </g>
  </g>
  <g clip-path="url(#9df0a1c8af)">
    <g clip-path="url(#682f421ba5)">
      <path fill="#e74348" d="M 13.648438 6.523438 L 37.207031 6.523438 L 37.207031 20.851562 L 13.648438 20.851562 Z M 13.648438 6.523438 " fill-opacity="1" fill-rule="nonzero"/>
    </g>
  </g>
  <g clip-path="url(#d78e3281a6)">
    <g clip-path="url(#32806f3243)">
      <path fill="#e74348" d="M 14.25 9.75 L 33.675781 9.75 L 33.675781 22.5 L 14.25 22.5 Z M 14.25 9.75 " fill-opacity="1" fill-rule="nonzero"/>
    </g>
  </g>
  <g clip-path="url(#84a0b6b834)">
    <g clip-path="url(#153a0fb98b)">
      <path fill="#e74348" d="M 19.574219 10.949219 L 36.007812 10.949219 L 36.007812 23.773438 L 19.574219 23.773438 Z M 19.574219 10.949219 " fill-opacity="1" fill-rule="nonzero"/>
    </g>
  </g>
  <g clip-path="url(#918625ddf1)">
    <g clip-path="url(#4479424f44)">
      <path fill="#e74348" d="M 25.050781 11.476562 L 37.273438 11.476562 L 37.273438 25.65625 L 25.050781 25.65625 Z M 25.050781 11.476562 " fill-opacity="1" fill-rule="nonzero"/>
    </g>
  </g>
  <g clip-path="url(#b7c940a920)">
    <g clip-path="url(#ce21e42f09)">
      <path fill="#e74348" d="M 10.648438 4.425781 L 40.234375 4.425781 L 40.234375 26.699219 L 10.648438 26.699219 Z M 10.648438 4.425781 " fill-opacity="1" fill-rule="nonzero"/>
    </g>
  </g>
  <g clip-path="url(#836e0388bc)">
    <g clip-path="url(#6e98ba389b)">
      <path fill="#e74348" d="M 19.648438 27.75 L 33 27.75 L 33 44.019531 L 19.648438 44.019531 Z M 19.648438 27.75 " fill-opacity="1" fill-rule="nonzero"/>
    </g>
  </g>
  <g clip-path="url(#ead7f1d9c8)">
    <g clip-path="url(#3478cee8b9)">
      <path fill="#e74348" d="M 22.648438 30.300781 L 34.199219 30.300781 L 34.199219 46.585938 L 22.648438 46.585938 Z M 22.648438 30.300781 " fill-opacity="1" fill-rule="nonzero"/>
    </g>
  </g>
  <g clip-path="url(#5f7337d78c)">
    <g clip-path="url(#dafb75daee)">
      <path fill="#e74348" d="M 25.648438 29.773438 L 38.175781 29.773438 L 38.175781 47.683594 L 25.648438 47.683594 Z M 25.648438 29.773438 " fill-opacity="1" fill-rule="nonzero"/>
    </g>
  </g>
  <g clip-path="url(#95ba5e8025)">
    <g clip-path="url(#47c31fe208)">
      <path fill="#e74348" d="M 29.175781 28.425781 L 41.851562 28.425781 L 41.851562 45.457031 L 29.175781 45.457031 Z M 29.175781 28.425781 " fill-opacity="1" fill-rule="nonzero"/>
    </g>
  </g>
  <g clip-path="url(#c0f4bca9d2)">
    <g clip-path="url(#134bcfacd9)">
      <path fill="#e74348" d="M 32.175781 28.425781 L 43.648438 28.425781 L 43.648438 44.113281 L 32.175781 44.113281 Z M 32.175781 28.425781 " fill-opacity="1" fill-rule="nonzero"/>
    </g>
  </g>
  <g clip-path="url(#01b69d147a)">
    <g clip-path="url(#559224deb0)">
      <path fill="#e74348" d="M 35.25 25.050781 L 48 25.050781 L 48 42.382812 L 35.25 42.382812 Z M 35.25 25.050781 " fill-opacity="1" fill-rule="nonzero"/>
    </g>
  </g>
  <g clip-path="url(#a03a19fedd)">
    <g clip-path="url(#af4b0ca213)">
      <path fill="#e74348" d="M 15.976562 37.949219 L 30.75 37.949219 L 30.75 53.707031 L 15.976562 53.707031 Z M 15.976562 37.949219 " fill-opacity="1" fill-rule="nonzero"/>
    </g>
  </g>
  <g clip-path="url(#689c4c5099)">
    <g clip-path="url(#d287aac627)">
      <path fill="#e74348" d="M 18 37.726562 L 29.925781 37.726562 L 29.925781 57.242188 L 18 57.242188 Z M 18 37.726562 " fill-opacity="1" fill-rule="nonzero"/>
    </g>
  </g>
  <g clip-path="url(#88d9a8589c)">
    <g clip-path="url(#5aa1cdd4cf)">
      <path fill="#e74348" d="M 22.648438 41.023438 L 33.601562 41.023438 L 33.601562 58.5625 L 22.648438 58.5625 Z M 22.648438 41.023438 " fill-opacity="1" fill-rule="nonzero"/>
    </g>
  </g>
  <g clip-path="url(#a7b8606969)">
    <g clip-path="url(#8a1becadb3)">
      <path fill="#e74348" d="M 23.773438 36.898438 L 59.027344 36.898438 L 59.027344 60.523438 L 23.773438 60.523438 Z M 23.773438 36.898438 " fill-opacity="1" fill-rule="nonzero"/>
    </g>
  </g>
  <g clip-path="url(#45b4cbc436)">
    <g clip-path="url(#10ec11c76b)">
      <path fill="#e74348" d="M 41.699219 31.949219 L 58.050781 31.949219 L 58.050781 52.769531 L 41.699219 52.769531 Z M 41.699219 31.949219 " fill-opacity="1" fill-rule="nonzero"/>
    </g>
  </g>
  <g clip-path="url(#45af6f52b9)">
    <g clip-path="url(#2b8cce346a)">
      <path fill="#000000" d="M 23.398438 25.050781 L 33.300781 25.050781 L 33.300781 45.972656 L 23.398438 45.972656 Z M 23.398438 25.050781 " fill-opacity="1" fill-rule="nonzero"/>
    </g>
  </g>
</svg>